%TF.GenerationSoftware,KiCad,Pcbnew,8.0.2*%
%TF.CreationDate,2024-05-30T20:37:47+12:00*%
%TF.ProjectId,PDP-FUSE,5044502d-4655-4534-952e-6b696361645f,rev?*%
%TF.SameCoordinates,Original*%
%TF.FileFunction,Drillmap*%
%TF.FilePolarity,Positive*%
%FSLAX45Y45*%
G04 Gerber Fmt 4.5, Leading zero omitted, Abs format (unit mm)*
G04 Created by KiCad (PCBNEW 8.0.2) date 2024-05-30 20:37:47*
%MOMM*%
%LPD*%
G01*
G04 APERTURE LIST*
%ADD10C,0.100000*%
%ADD11C,0.200000*%
%ADD12C,0.150000*%
%ADD13C,0.198000*%
G04 APERTURE END LIST*
D10*
X17150000Y-8400000D02*
G75*
G02*
X17200000Y-8450000I0J-50000D01*
G01*
X17200000Y-8450000D02*
X17200000Y-13550000D01*
X10650000Y-13600000D02*
G75*
G02*
X10600000Y-13550000I0J50000D01*
G01*
X17200000Y-13550000D02*
G75*
G02*
X17150000Y-13600000I-50000J0D01*
G01*
X10600000Y-13550000D02*
X10600000Y-8450000D01*
X10600000Y-8450000D02*
G75*
G02*
X10650000Y-8400000I50000J0D01*
G01*
X10650000Y-8400000D02*
X17150000Y-8400000D01*
X17150000Y-13600000D02*
X10650000Y-13600000D01*
D11*
D10*
X12834000Y-13219000D02*
X12934000Y-13319000D01*
X12934000Y-13219000D02*
X12834000Y-13319000D01*
X13088000Y-13219000D02*
X13188000Y-13319000D01*
X13188000Y-13219000D02*
X13088000Y-13319000D01*
X13342000Y-13219000D02*
X13442000Y-13319000D01*
X13442000Y-13219000D02*
X13342000Y-13319000D01*
X13596000Y-13219000D02*
X13696000Y-13319000D01*
X13696000Y-13219000D02*
X13596000Y-13319000D01*
X13850000Y-13219000D02*
X13950000Y-13319000D01*
X13950000Y-13219000D02*
X13850000Y-13319000D01*
X14104000Y-13219000D02*
X14204000Y-13319000D01*
X14204000Y-13219000D02*
X14104000Y-13319000D01*
X14358000Y-13219000D02*
X14458000Y-13319000D01*
X14458000Y-13219000D02*
X14358000Y-13319000D01*
X14612000Y-13219000D02*
X14712000Y-13319000D01*
X14712000Y-13219000D02*
X14612000Y-13319000D01*
D12*
X11475000Y-9204500D02*
G75*
G02*
X11325000Y-9204500I-75000J0D01*
G01*
X11325000Y-9204500D02*
G75*
G02*
X11475000Y-9204500I75000J0D01*
G01*
X11475000Y-9717500D02*
G75*
G02*
X11325000Y-9717500I-75000J0D01*
G01*
X11325000Y-9717500D02*
G75*
G02*
X11475000Y-9717500I75000J0D01*
G01*
X11475000Y-10230500D02*
G75*
G02*
X11325000Y-10230500I-75000J0D01*
G01*
X11325000Y-10230500D02*
G75*
G02*
X11475000Y-10230500I75000J0D01*
G01*
X11475000Y-10743500D02*
G75*
G02*
X11325000Y-10743500I-75000J0D01*
G01*
X11325000Y-10743500D02*
G75*
G02*
X11475000Y-10743500I75000J0D01*
G01*
X11475000Y-11256500D02*
G75*
G02*
X11325000Y-11256500I-75000J0D01*
G01*
X11325000Y-11256500D02*
G75*
G02*
X11475000Y-11256500I75000J0D01*
G01*
X11475000Y-11769500D02*
G75*
G02*
X11325000Y-11769500I-75000J0D01*
G01*
X11325000Y-11769500D02*
G75*
G02*
X11475000Y-11769500I75000J0D01*
G01*
X11475000Y-12282500D02*
G75*
G02*
X11325000Y-12282500I-75000J0D01*
G01*
X11325000Y-12282500D02*
G75*
G02*
X11475000Y-12282500I75000J0D01*
G01*
X11475000Y-12795500D02*
G75*
G02*
X11325000Y-12795500I-75000J0D01*
G01*
X11325000Y-12795500D02*
G75*
G02*
X11475000Y-12795500I75000J0D01*
G01*
X16475000Y-9204500D02*
G75*
G02*
X16325000Y-9204500I-75000J0D01*
G01*
X16325000Y-9204500D02*
G75*
G02*
X16475000Y-9204500I75000J0D01*
G01*
X16475000Y-9717500D02*
G75*
G02*
X16325000Y-9717500I-75000J0D01*
G01*
X16325000Y-9717500D02*
G75*
G02*
X16475000Y-9717500I75000J0D01*
G01*
X16475000Y-10230500D02*
G75*
G02*
X16325000Y-10230500I-75000J0D01*
G01*
X16325000Y-10230500D02*
G75*
G02*
X16475000Y-10230500I75000J0D01*
G01*
X16475000Y-10743500D02*
G75*
G02*
X16325000Y-10743500I-75000J0D01*
G01*
X16325000Y-10743500D02*
G75*
G02*
X16475000Y-10743500I75000J0D01*
G01*
X16475000Y-11256500D02*
G75*
G02*
X16325000Y-11256500I-75000J0D01*
G01*
X16325000Y-11256500D02*
G75*
G02*
X16475000Y-11256500I75000J0D01*
G01*
X16475000Y-11769500D02*
G75*
G02*
X16325000Y-11769500I-75000J0D01*
G01*
X16325000Y-11769500D02*
G75*
G02*
X16475000Y-11769500I75000J0D01*
G01*
X16475000Y-12282500D02*
G75*
G02*
X16325000Y-12282500I-75000J0D01*
G01*
X16325000Y-12282500D02*
G75*
G02*
X16475000Y-12282500I75000J0D01*
G01*
X16475000Y-12795500D02*
G75*
G02*
X16325000Y-12795500I-75000J0D01*
G01*
X16325000Y-12795500D02*
G75*
G02*
X16475000Y-12795500I75000J0D01*
G01*
D13*
X12189500Y-10137200D02*
X12189500Y-10335200D01*
X12090500Y-10236200D02*
X12288500Y-10236200D01*
X12951500Y-10137200D02*
X12951500Y-10335200D01*
X12852500Y-10236200D02*
X13050500Y-10236200D01*
X14848500Y-10137200D02*
X14848500Y-10335200D01*
X14749500Y-10236200D02*
X14947500Y-10236200D01*
X15610500Y-10137200D02*
X15610500Y-10335200D01*
X15511500Y-10236200D02*
X15709500Y-10236200D01*
D11*
X10855777Y-13916484D02*
X10855777Y-13716484D01*
X10855777Y-13716484D02*
X10903396Y-13716484D01*
X10903396Y-13716484D02*
X10931967Y-13726008D01*
X10931967Y-13726008D02*
X10951015Y-13745055D01*
X10951015Y-13745055D02*
X10960539Y-13764103D01*
X10960539Y-13764103D02*
X10970063Y-13802198D01*
X10970063Y-13802198D02*
X10970063Y-13830769D01*
X10970063Y-13830769D02*
X10960539Y-13868865D01*
X10960539Y-13868865D02*
X10951015Y-13887912D01*
X10951015Y-13887912D02*
X10931967Y-13906960D01*
X10931967Y-13906960D02*
X10903396Y-13916484D01*
X10903396Y-13916484D02*
X10855777Y-13916484D01*
X11055777Y-13916484D02*
X11055777Y-13783150D01*
X11055777Y-13821246D02*
X11065301Y-13802198D01*
X11065301Y-13802198D02*
X11074824Y-13792674D01*
X11074824Y-13792674D02*
X11093872Y-13783150D01*
X11093872Y-13783150D02*
X11112920Y-13783150D01*
X11179586Y-13916484D02*
X11179586Y-13783150D01*
X11179586Y-13716484D02*
X11170063Y-13726008D01*
X11170063Y-13726008D02*
X11179586Y-13735531D01*
X11179586Y-13735531D02*
X11189110Y-13726008D01*
X11189110Y-13726008D02*
X11179586Y-13716484D01*
X11179586Y-13716484D02*
X11179586Y-13735531D01*
X11303396Y-13916484D02*
X11284348Y-13906960D01*
X11284348Y-13906960D02*
X11274824Y-13887912D01*
X11274824Y-13887912D02*
X11274824Y-13716484D01*
X11408158Y-13916484D02*
X11389110Y-13906960D01*
X11389110Y-13906960D02*
X11379586Y-13887912D01*
X11379586Y-13887912D02*
X11379586Y-13716484D01*
X11636729Y-13916484D02*
X11636729Y-13716484D01*
X11636729Y-13716484D02*
X11703396Y-13859341D01*
X11703396Y-13859341D02*
X11770062Y-13716484D01*
X11770062Y-13716484D02*
X11770062Y-13916484D01*
X11951015Y-13916484D02*
X11951015Y-13811722D01*
X11951015Y-13811722D02*
X11941491Y-13792674D01*
X11941491Y-13792674D02*
X11922443Y-13783150D01*
X11922443Y-13783150D02*
X11884348Y-13783150D01*
X11884348Y-13783150D02*
X11865301Y-13792674D01*
X11951015Y-13906960D02*
X11931967Y-13916484D01*
X11931967Y-13916484D02*
X11884348Y-13916484D01*
X11884348Y-13916484D02*
X11865301Y-13906960D01*
X11865301Y-13906960D02*
X11855777Y-13887912D01*
X11855777Y-13887912D02*
X11855777Y-13868865D01*
X11855777Y-13868865D02*
X11865301Y-13849817D01*
X11865301Y-13849817D02*
X11884348Y-13840293D01*
X11884348Y-13840293D02*
X11931967Y-13840293D01*
X11931967Y-13840293D02*
X11951015Y-13830769D01*
X12046253Y-13783150D02*
X12046253Y-13983150D01*
X12046253Y-13792674D02*
X12065301Y-13783150D01*
X12065301Y-13783150D02*
X12103396Y-13783150D01*
X12103396Y-13783150D02*
X12122443Y-13792674D01*
X12122443Y-13792674D02*
X12131967Y-13802198D01*
X12131967Y-13802198D02*
X12141491Y-13821246D01*
X12141491Y-13821246D02*
X12141491Y-13878388D01*
X12141491Y-13878388D02*
X12131967Y-13897436D01*
X12131967Y-13897436D02*
X12122443Y-13906960D01*
X12122443Y-13906960D02*
X12103396Y-13916484D01*
X12103396Y-13916484D02*
X12065301Y-13916484D01*
X12065301Y-13916484D02*
X12046253Y-13906960D01*
X12227205Y-13897436D02*
X12236729Y-13906960D01*
X12236729Y-13906960D02*
X12227205Y-13916484D01*
X12227205Y-13916484D02*
X12217682Y-13906960D01*
X12217682Y-13906960D02*
X12227205Y-13897436D01*
X12227205Y-13897436D02*
X12227205Y-13916484D01*
X12227205Y-13792674D02*
X12236729Y-13802198D01*
X12236729Y-13802198D02*
X12227205Y-13811722D01*
X12227205Y-13811722D02*
X12217682Y-13802198D01*
X12217682Y-13802198D02*
X12227205Y-13792674D01*
X12227205Y-13792674D02*
X12227205Y-13811722D01*
D10*
X10495000Y-14195000D02*
X10595000Y-14295000D01*
X10595000Y-14195000D02*
X10495000Y-14295000D01*
D11*
X10960539Y-14336484D02*
X10846253Y-14336484D01*
X10903396Y-14336484D02*
X10903396Y-14136484D01*
X10903396Y-14136484D02*
X10884348Y-14165055D01*
X10884348Y-14165055D02*
X10865301Y-14184103D01*
X10865301Y-14184103D02*
X10846253Y-14193627D01*
X11046253Y-14317436D02*
X11055777Y-14326960D01*
X11055777Y-14326960D02*
X11046253Y-14336484D01*
X11046253Y-14336484D02*
X11036729Y-14326960D01*
X11036729Y-14326960D02*
X11046253Y-14317436D01*
X11046253Y-14317436D02*
X11046253Y-14336484D01*
X11179586Y-14136484D02*
X11198634Y-14136484D01*
X11198634Y-14136484D02*
X11217682Y-14146008D01*
X11217682Y-14146008D02*
X11227205Y-14155531D01*
X11227205Y-14155531D02*
X11236729Y-14174579D01*
X11236729Y-14174579D02*
X11246253Y-14212674D01*
X11246253Y-14212674D02*
X11246253Y-14260293D01*
X11246253Y-14260293D02*
X11236729Y-14298388D01*
X11236729Y-14298388D02*
X11227205Y-14317436D01*
X11227205Y-14317436D02*
X11217682Y-14326960D01*
X11217682Y-14326960D02*
X11198634Y-14336484D01*
X11198634Y-14336484D02*
X11179586Y-14336484D01*
X11179586Y-14336484D02*
X11160539Y-14326960D01*
X11160539Y-14326960D02*
X11151015Y-14317436D01*
X11151015Y-14317436D02*
X11141491Y-14298388D01*
X11141491Y-14298388D02*
X11131967Y-14260293D01*
X11131967Y-14260293D02*
X11131967Y-14212674D01*
X11131967Y-14212674D02*
X11141491Y-14174579D01*
X11141491Y-14174579D02*
X11151015Y-14155531D01*
X11151015Y-14155531D02*
X11160539Y-14146008D01*
X11160539Y-14146008D02*
X11179586Y-14136484D01*
X11370062Y-14136484D02*
X11389110Y-14136484D01*
X11389110Y-14136484D02*
X11408158Y-14146008D01*
X11408158Y-14146008D02*
X11417682Y-14155531D01*
X11417682Y-14155531D02*
X11427205Y-14174579D01*
X11427205Y-14174579D02*
X11436729Y-14212674D01*
X11436729Y-14212674D02*
X11436729Y-14260293D01*
X11436729Y-14260293D02*
X11427205Y-14298388D01*
X11427205Y-14298388D02*
X11417682Y-14317436D01*
X11417682Y-14317436D02*
X11408158Y-14326960D01*
X11408158Y-14326960D02*
X11389110Y-14336484D01*
X11389110Y-14336484D02*
X11370062Y-14336484D01*
X11370062Y-14336484D02*
X11351015Y-14326960D01*
X11351015Y-14326960D02*
X11341491Y-14317436D01*
X11341491Y-14317436D02*
X11331967Y-14298388D01*
X11331967Y-14298388D02*
X11322443Y-14260293D01*
X11322443Y-14260293D02*
X11322443Y-14212674D01*
X11322443Y-14212674D02*
X11331967Y-14174579D01*
X11331967Y-14174579D02*
X11341491Y-14155531D01*
X11341491Y-14155531D02*
X11351015Y-14146008D01*
X11351015Y-14146008D02*
X11370062Y-14136484D01*
X11560539Y-14136484D02*
X11579586Y-14136484D01*
X11579586Y-14136484D02*
X11598634Y-14146008D01*
X11598634Y-14146008D02*
X11608158Y-14155531D01*
X11608158Y-14155531D02*
X11617682Y-14174579D01*
X11617682Y-14174579D02*
X11627205Y-14212674D01*
X11627205Y-14212674D02*
X11627205Y-14260293D01*
X11627205Y-14260293D02*
X11617682Y-14298388D01*
X11617682Y-14298388D02*
X11608158Y-14317436D01*
X11608158Y-14317436D02*
X11598634Y-14326960D01*
X11598634Y-14326960D02*
X11579586Y-14336484D01*
X11579586Y-14336484D02*
X11560539Y-14336484D01*
X11560539Y-14336484D02*
X11541491Y-14326960D01*
X11541491Y-14326960D02*
X11531967Y-14317436D01*
X11531967Y-14317436D02*
X11522443Y-14298388D01*
X11522443Y-14298388D02*
X11512920Y-14260293D01*
X11512920Y-14260293D02*
X11512920Y-14212674D01*
X11512920Y-14212674D02*
X11522443Y-14174579D01*
X11522443Y-14174579D02*
X11531967Y-14155531D01*
X11531967Y-14155531D02*
X11541491Y-14146008D01*
X11541491Y-14146008D02*
X11560539Y-14136484D01*
X11712920Y-14336484D02*
X11712920Y-14203150D01*
X11712920Y-14222198D02*
X11722443Y-14212674D01*
X11722443Y-14212674D02*
X11741491Y-14203150D01*
X11741491Y-14203150D02*
X11770063Y-14203150D01*
X11770063Y-14203150D02*
X11789110Y-14212674D01*
X11789110Y-14212674D02*
X11798634Y-14231722D01*
X11798634Y-14231722D02*
X11798634Y-14336484D01*
X11798634Y-14231722D02*
X11808158Y-14212674D01*
X11808158Y-14212674D02*
X11827205Y-14203150D01*
X11827205Y-14203150D02*
X11855777Y-14203150D01*
X11855777Y-14203150D02*
X11874824Y-14212674D01*
X11874824Y-14212674D02*
X11884348Y-14231722D01*
X11884348Y-14231722D02*
X11884348Y-14336484D01*
X11979586Y-14336484D02*
X11979586Y-14203150D01*
X11979586Y-14222198D02*
X11989110Y-14212674D01*
X11989110Y-14212674D02*
X12008158Y-14203150D01*
X12008158Y-14203150D02*
X12036729Y-14203150D01*
X12036729Y-14203150D02*
X12055777Y-14212674D01*
X12055777Y-14212674D02*
X12065301Y-14231722D01*
X12065301Y-14231722D02*
X12065301Y-14336484D01*
X12065301Y-14231722D02*
X12074824Y-14212674D01*
X12074824Y-14212674D02*
X12093872Y-14203150D01*
X12093872Y-14203150D02*
X12122443Y-14203150D01*
X12122443Y-14203150D02*
X12141491Y-14212674D01*
X12141491Y-14212674D02*
X12151015Y-14231722D01*
X12151015Y-14231722D02*
X12151015Y-14336484D01*
X12541491Y-14126960D02*
X12370063Y-14384103D01*
X12798634Y-14136484D02*
X12817682Y-14136484D01*
X12817682Y-14136484D02*
X12836729Y-14146008D01*
X12836729Y-14146008D02*
X12846253Y-14155531D01*
X12846253Y-14155531D02*
X12855777Y-14174579D01*
X12855777Y-14174579D02*
X12865301Y-14212674D01*
X12865301Y-14212674D02*
X12865301Y-14260293D01*
X12865301Y-14260293D02*
X12855777Y-14298388D01*
X12855777Y-14298388D02*
X12846253Y-14317436D01*
X12846253Y-14317436D02*
X12836729Y-14326960D01*
X12836729Y-14326960D02*
X12817682Y-14336484D01*
X12817682Y-14336484D02*
X12798634Y-14336484D01*
X12798634Y-14336484D02*
X12779586Y-14326960D01*
X12779586Y-14326960D02*
X12770063Y-14317436D01*
X12770063Y-14317436D02*
X12760539Y-14298388D01*
X12760539Y-14298388D02*
X12751015Y-14260293D01*
X12751015Y-14260293D02*
X12751015Y-14212674D01*
X12751015Y-14212674D02*
X12760539Y-14174579D01*
X12760539Y-14174579D02*
X12770063Y-14155531D01*
X12770063Y-14155531D02*
X12779586Y-14146008D01*
X12779586Y-14146008D02*
X12798634Y-14136484D01*
X12951015Y-14317436D02*
X12960539Y-14326960D01*
X12960539Y-14326960D02*
X12951015Y-14336484D01*
X12951015Y-14336484D02*
X12941491Y-14326960D01*
X12941491Y-14326960D02*
X12951015Y-14317436D01*
X12951015Y-14317436D02*
X12951015Y-14336484D01*
X13084348Y-14136484D02*
X13103396Y-14136484D01*
X13103396Y-14136484D02*
X13122444Y-14146008D01*
X13122444Y-14146008D02*
X13131967Y-14155531D01*
X13131967Y-14155531D02*
X13141491Y-14174579D01*
X13141491Y-14174579D02*
X13151015Y-14212674D01*
X13151015Y-14212674D02*
X13151015Y-14260293D01*
X13151015Y-14260293D02*
X13141491Y-14298388D01*
X13141491Y-14298388D02*
X13131967Y-14317436D01*
X13131967Y-14317436D02*
X13122444Y-14326960D01*
X13122444Y-14326960D02*
X13103396Y-14336484D01*
X13103396Y-14336484D02*
X13084348Y-14336484D01*
X13084348Y-14336484D02*
X13065301Y-14326960D01*
X13065301Y-14326960D02*
X13055777Y-14317436D01*
X13055777Y-14317436D02*
X13046253Y-14298388D01*
X13046253Y-14298388D02*
X13036729Y-14260293D01*
X13036729Y-14260293D02*
X13036729Y-14212674D01*
X13036729Y-14212674D02*
X13046253Y-14174579D01*
X13046253Y-14174579D02*
X13055777Y-14155531D01*
X13055777Y-14155531D02*
X13065301Y-14146008D01*
X13065301Y-14146008D02*
X13084348Y-14136484D01*
X13217682Y-14136484D02*
X13341491Y-14136484D01*
X13341491Y-14136484D02*
X13274825Y-14212674D01*
X13274825Y-14212674D02*
X13303396Y-14212674D01*
X13303396Y-14212674D02*
X13322444Y-14222198D01*
X13322444Y-14222198D02*
X13331967Y-14231722D01*
X13331967Y-14231722D02*
X13341491Y-14250769D01*
X13341491Y-14250769D02*
X13341491Y-14298388D01*
X13341491Y-14298388D02*
X13331967Y-14317436D01*
X13331967Y-14317436D02*
X13322444Y-14326960D01*
X13322444Y-14326960D02*
X13303396Y-14336484D01*
X13303396Y-14336484D02*
X13246253Y-14336484D01*
X13246253Y-14336484D02*
X13227206Y-14326960D01*
X13227206Y-14326960D02*
X13217682Y-14317436D01*
X13436729Y-14336484D02*
X13474825Y-14336484D01*
X13474825Y-14336484D02*
X13493872Y-14326960D01*
X13493872Y-14326960D02*
X13503396Y-14317436D01*
X13503396Y-14317436D02*
X13522444Y-14288865D01*
X13522444Y-14288865D02*
X13531967Y-14250769D01*
X13531967Y-14250769D02*
X13531967Y-14174579D01*
X13531967Y-14174579D02*
X13522444Y-14155531D01*
X13522444Y-14155531D02*
X13512920Y-14146008D01*
X13512920Y-14146008D02*
X13493872Y-14136484D01*
X13493872Y-14136484D02*
X13455777Y-14136484D01*
X13455777Y-14136484D02*
X13436729Y-14146008D01*
X13436729Y-14146008D02*
X13427206Y-14155531D01*
X13427206Y-14155531D02*
X13417682Y-14174579D01*
X13417682Y-14174579D02*
X13417682Y-14222198D01*
X13417682Y-14222198D02*
X13427206Y-14241246D01*
X13427206Y-14241246D02*
X13436729Y-14250769D01*
X13436729Y-14250769D02*
X13455777Y-14260293D01*
X13455777Y-14260293D02*
X13493872Y-14260293D01*
X13493872Y-14260293D02*
X13512920Y-14250769D01*
X13512920Y-14250769D02*
X13522444Y-14241246D01*
X13522444Y-14241246D02*
X13531967Y-14222198D01*
X13703396Y-14203150D02*
X13703396Y-14336484D01*
X13655777Y-14126960D02*
X13608158Y-14269817D01*
X13608158Y-14269817D02*
X13731967Y-14269817D01*
X13798634Y-14136484D02*
X13798634Y-14174579D01*
X13874825Y-14136484D02*
X13874825Y-14174579D01*
X14170063Y-14412674D02*
X14160539Y-14403150D01*
X14160539Y-14403150D02*
X14141491Y-14374579D01*
X14141491Y-14374579D02*
X14131968Y-14355531D01*
X14131968Y-14355531D02*
X14122444Y-14326960D01*
X14122444Y-14326960D02*
X14112920Y-14279341D01*
X14112920Y-14279341D02*
X14112920Y-14241246D01*
X14112920Y-14241246D02*
X14122444Y-14193627D01*
X14122444Y-14193627D02*
X14131968Y-14165055D01*
X14131968Y-14165055D02*
X14141491Y-14146008D01*
X14141491Y-14146008D02*
X14160539Y-14117436D01*
X14160539Y-14117436D02*
X14170063Y-14107912D01*
X14274825Y-14222198D02*
X14255777Y-14212674D01*
X14255777Y-14212674D02*
X14246253Y-14203150D01*
X14246253Y-14203150D02*
X14236729Y-14184103D01*
X14236729Y-14184103D02*
X14236729Y-14174579D01*
X14236729Y-14174579D02*
X14246253Y-14155531D01*
X14246253Y-14155531D02*
X14255777Y-14146008D01*
X14255777Y-14146008D02*
X14274825Y-14136484D01*
X14274825Y-14136484D02*
X14312920Y-14136484D01*
X14312920Y-14136484D02*
X14331968Y-14146008D01*
X14331968Y-14146008D02*
X14341491Y-14155531D01*
X14341491Y-14155531D02*
X14351015Y-14174579D01*
X14351015Y-14174579D02*
X14351015Y-14184103D01*
X14351015Y-14184103D02*
X14341491Y-14203150D01*
X14341491Y-14203150D02*
X14331968Y-14212674D01*
X14331968Y-14212674D02*
X14312920Y-14222198D01*
X14312920Y-14222198D02*
X14274825Y-14222198D01*
X14274825Y-14222198D02*
X14255777Y-14231722D01*
X14255777Y-14231722D02*
X14246253Y-14241246D01*
X14246253Y-14241246D02*
X14236729Y-14260293D01*
X14236729Y-14260293D02*
X14236729Y-14298388D01*
X14236729Y-14298388D02*
X14246253Y-14317436D01*
X14246253Y-14317436D02*
X14255777Y-14326960D01*
X14255777Y-14326960D02*
X14274825Y-14336484D01*
X14274825Y-14336484D02*
X14312920Y-14336484D01*
X14312920Y-14336484D02*
X14331968Y-14326960D01*
X14331968Y-14326960D02*
X14341491Y-14317436D01*
X14341491Y-14317436D02*
X14351015Y-14298388D01*
X14351015Y-14298388D02*
X14351015Y-14260293D01*
X14351015Y-14260293D02*
X14341491Y-14241246D01*
X14341491Y-14241246D02*
X14331968Y-14231722D01*
X14331968Y-14231722D02*
X14312920Y-14222198D01*
X14589110Y-14336484D02*
X14589110Y-14136484D01*
X14674825Y-14336484D02*
X14674825Y-14231722D01*
X14674825Y-14231722D02*
X14665301Y-14212674D01*
X14665301Y-14212674D02*
X14646253Y-14203150D01*
X14646253Y-14203150D02*
X14617682Y-14203150D01*
X14617682Y-14203150D02*
X14598634Y-14212674D01*
X14598634Y-14212674D02*
X14589110Y-14222198D01*
X14798634Y-14336484D02*
X14779587Y-14326960D01*
X14779587Y-14326960D02*
X14770063Y-14317436D01*
X14770063Y-14317436D02*
X14760539Y-14298388D01*
X14760539Y-14298388D02*
X14760539Y-14241246D01*
X14760539Y-14241246D02*
X14770063Y-14222198D01*
X14770063Y-14222198D02*
X14779587Y-14212674D01*
X14779587Y-14212674D02*
X14798634Y-14203150D01*
X14798634Y-14203150D02*
X14827206Y-14203150D01*
X14827206Y-14203150D02*
X14846253Y-14212674D01*
X14846253Y-14212674D02*
X14855777Y-14222198D01*
X14855777Y-14222198D02*
X14865301Y-14241246D01*
X14865301Y-14241246D02*
X14865301Y-14298388D01*
X14865301Y-14298388D02*
X14855777Y-14317436D01*
X14855777Y-14317436D02*
X14846253Y-14326960D01*
X14846253Y-14326960D02*
X14827206Y-14336484D01*
X14827206Y-14336484D02*
X14798634Y-14336484D01*
X14979587Y-14336484D02*
X14960539Y-14326960D01*
X14960539Y-14326960D02*
X14951015Y-14307912D01*
X14951015Y-14307912D02*
X14951015Y-14136484D01*
X15131968Y-14326960D02*
X15112920Y-14336484D01*
X15112920Y-14336484D02*
X15074825Y-14336484D01*
X15074825Y-14336484D02*
X15055777Y-14326960D01*
X15055777Y-14326960D02*
X15046253Y-14307912D01*
X15046253Y-14307912D02*
X15046253Y-14231722D01*
X15046253Y-14231722D02*
X15055777Y-14212674D01*
X15055777Y-14212674D02*
X15074825Y-14203150D01*
X15074825Y-14203150D02*
X15112920Y-14203150D01*
X15112920Y-14203150D02*
X15131968Y-14212674D01*
X15131968Y-14212674D02*
X15141491Y-14231722D01*
X15141491Y-14231722D02*
X15141491Y-14250769D01*
X15141491Y-14250769D02*
X15046253Y-14269817D01*
X15217682Y-14326960D02*
X15236730Y-14336484D01*
X15236730Y-14336484D02*
X15274825Y-14336484D01*
X15274825Y-14336484D02*
X15293872Y-14326960D01*
X15293872Y-14326960D02*
X15303396Y-14307912D01*
X15303396Y-14307912D02*
X15303396Y-14298388D01*
X15303396Y-14298388D02*
X15293872Y-14279341D01*
X15293872Y-14279341D02*
X15274825Y-14269817D01*
X15274825Y-14269817D02*
X15246253Y-14269817D01*
X15246253Y-14269817D02*
X15227206Y-14260293D01*
X15227206Y-14260293D02*
X15217682Y-14241246D01*
X15217682Y-14241246D02*
X15217682Y-14231722D01*
X15217682Y-14231722D02*
X15227206Y-14212674D01*
X15227206Y-14212674D02*
X15246253Y-14203150D01*
X15246253Y-14203150D02*
X15274825Y-14203150D01*
X15274825Y-14203150D02*
X15293872Y-14212674D01*
X15370063Y-14412674D02*
X15379587Y-14403150D01*
X15379587Y-14403150D02*
X15398634Y-14374579D01*
X15398634Y-14374579D02*
X15408158Y-14355531D01*
X15408158Y-14355531D02*
X15417682Y-14326960D01*
X15417682Y-14326960D02*
X15427206Y-14279341D01*
X15427206Y-14279341D02*
X15427206Y-14241246D01*
X15427206Y-14241246D02*
X15417682Y-14193627D01*
X15417682Y-14193627D02*
X15408158Y-14165055D01*
X15408158Y-14165055D02*
X15398634Y-14146008D01*
X15398634Y-14146008D02*
X15379587Y-14117436D01*
X15379587Y-14117436D02*
X15370063Y-14107912D01*
D12*
X10595000Y-14509000D02*
G75*
G02*
X10445000Y-14509000I-75000J0D01*
G01*
X10445000Y-14509000D02*
G75*
G02*
X10595000Y-14509000I75000J0D01*
G01*
D11*
X10960539Y-14600484D02*
X10846253Y-14600484D01*
X10903396Y-14600484D02*
X10903396Y-14400484D01*
X10903396Y-14400484D02*
X10884348Y-14429055D01*
X10884348Y-14429055D02*
X10865301Y-14448103D01*
X10865301Y-14448103D02*
X10846253Y-14457627D01*
X11046253Y-14581436D02*
X11055777Y-14590960D01*
X11055777Y-14590960D02*
X11046253Y-14600484D01*
X11046253Y-14600484D02*
X11036729Y-14590960D01*
X11036729Y-14590960D02*
X11046253Y-14581436D01*
X11046253Y-14581436D02*
X11046253Y-14600484D01*
X11236729Y-14400484D02*
X11141491Y-14400484D01*
X11141491Y-14400484D02*
X11131967Y-14495722D01*
X11131967Y-14495722D02*
X11141491Y-14486198D01*
X11141491Y-14486198D02*
X11160539Y-14476674D01*
X11160539Y-14476674D02*
X11208158Y-14476674D01*
X11208158Y-14476674D02*
X11227205Y-14486198D01*
X11227205Y-14486198D02*
X11236729Y-14495722D01*
X11236729Y-14495722D02*
X11246253Y-14514769D01*
X11246253Y-14514769D02*
X11246253Y-14562388D01*
X11246253Y-14562388D02*
X11236729Y-14581436D01*
X11236729Y-14581436D02*
X11227205Y-14590960D01*
X11227205Y-14590960D02*
X11208158Y-14600484D01*
X11208158Y-14600484D02*
X11160539Y-14600484D01*
X11160539Y-14600484D02*
X11141491Y-14590960D01*
X11141491Y-14590960D02*
X11131967Y-14581436D01*
X11370062Y-14400484D02*
X11389110Y-14400484D01*
X11389110Y-14400484D02*
X11408158Y-14410008D01*
X11408158Y-14410008D02*
X11417682Y-14419531D01*
X11417682Y-14419531D02*
X11427205Y-14438579D01*
X11427205Y-14438579D02*
X11436729Y-14476674D01*
X11436729Y-14476674D02*
X11436729Y-14524293D01*
X11436729Y-14524293D02*
X11427205Y-14562388D01*
X11427205Y-14562388D02*
X11417682Y-14581436D01*
X11417682Y-14581436D02*
X11408158Y-14590960D01*
X11408158Y-14590960D02*
X11389110Y-14600484D01*
X11389110Y-14600484D02*
X11370062Y-14600484D01*
X11370062Y-14600484D02*
X11351015Y-14590960D01*
X11351015Y-14590960D02*
X11341491Y-14581436D01*
X11341491Y-14581436D02*
X11331967Y-14562388D01*
X11331967Y-14562388D02*
X11322443Y-14524293D01*
X11322443Y-14524293D02*
X11322443Y-14476674D01*
X11322443Y-14476674D02*
X11331967Y-14438579D01*
X11331967Y-14438579D02*
X11341491Y-14419531D01*
X11341491Y-14419531D02*
X11351015Y-14410008D01*
X11351015Y-14410008D02*
X11370062Y-14400484D01*
X11560539Y-14400484D02*
X11579586Y-14400484D01*
X11579586Y-14400484D02*
X11598634Y-14410008D01*
X11598634Y-14410008D02*
X11608158Y-14419531D01*
X11608158Y-14419531D02*
X11617682Y-14438579D01*
X11617682Y-14438579D02*
X11627205Y-14476674D01*
X11627205Y-14476674D02*
X11627205Y-14524293D01*
X11627205Y-14524293D02*
X11617682Y-14562388D01*
X11617682Y-14562388D02*
X11608158Y-14581436D01*
X11608158Y-14581436D02*
X11598634Y-14590960D01*
X11598634Y-14590960D02*
X11579586Y-14600484D01*
X11579586Y-14600484D02*
X11560539Y-14600484D01*
X11560539Y-14600484D02*
X11541491Y-14590960D01*
X11541491Y-14590960D02*
X11531967Y-14581436D01*
X11531967Y-14581436D02*
X11522443Y-14562388D01*
X11522443Y-14562388D02*
X11512920Y-14524293D01*
X11512920Y-14524293D02*
X11512920Y-14476674D01*
X11512920Y-14476674D02*
X11522443Y-14438579D01*
X11522443Y-14438579D02*
X11531967Y-14419531D01*
X11531967Y-14419531D02*
X11541491Y-14410008D01*
X11541491Y-14410008D02*
X11560539Y-14400484D01*
X11712920Y-14600484D02*
X11712920Y-14467150D01*
X11712920Y-14486198D02*
X11722443Y-14476674D01*
X11722443Y-14476674D02*
X11741491Y-14467150D01*
X11741491Y-14467150D02*
X11770063Y-14467150D01*
X11770063Y-14467150D02*
X11789110Y-14476674D01*
X11789110Y-14476674D02*
X11798634Y-14495722D01*
X11798634Y-14495722D02*
X11798634Y-14600484D01*
X11798634Y-14495722D02*
X11808158Y-14476674D01*
X11808158Y-14476674D02*
X11827205Y-14467150D01*
X11827205Y-14467150D02*
X11855777Y-14467150D01*
X11855777Y-14467150D02*
X11874824Y-14476674D01*
X11874824Y-14476674D02*
X11884348Y-14495722D01*
X11884348Y-14495722D02*
X11884348Y-14600484D01*
X11979586Y-14600484D02*
X11979586Y-14467150D01*
X11979586Y-14486198D02*
X11989110Y-14476674D01*
X11989110Y-14476674D02*
X12008158Y-14467150D01*
X12008158Y-14467150D02*
X12036729Y-14467150D01*
X12036729Y-14467150D02*
X12055777Y-14476674D01*
X12055777Y-14476674D02*
X12065301Y-14495722D01*
X12065301Y-14495722D02*
X12065301Y-14600484D01*
X12065301Y-14495722D02*
X12074824Y-14476674D01*
X12074824Y-14476674D02*
X12093872Y-14467150D01*
X12093872Y-14467150D02*
X12122443Y-14467150D01*
X12122443Y-14467150D02*
X12141491Y-14476674D01*
X12141491Y-14476674D02*
X12151015Y-14495722D01*
X12151015Y-14495722D02*
X12151015Y-14600484D01*
X12541491Y-14390960D02*
X12370063Y-14648103D01*
X12798634Y-14400484D02*
X12817682Y-14400484D01*
X12817682Y-14400484D02*
X12836729Y-14410008D01*
X12836729Y-14410008D02*
X12846253Y-14419531D01*
X12846253Y-14419531D02*
X12855777Y-14438579D01*
X12855777Y-14438579D02*
X12865301Y-14476674D01*
X12865301Y-14476674D02*
X12865301Y-14524293D01*
X12865301Y-14524293D02*
X12855777Y-14562388D01*
X12855777Y-14562388D02*
X12846253Y-14581436D01*
X12846253Y-14581436D02*
X12836729Y-14590960D01*
X12836729Y-14590960D02*
X12817682Y-14600484D01*
X12817682Y-14600484D02*
X12798634Y-14600484D01*
X12798634Y-14600484D02*
X12779586Y-14590960D01*
X12779586Y-14590960D02*
X12770063Y-14581436D01*
X12770063Y-14581436D02*
X12760539Y-14562388D01*
X12760539Y-14562388D02*
X12751015Y-14524293D01*
X12751015Y-14524293D02*
X12751015Y-14476674D01*
X12751015Y-14476674D02*
X12760539Y-14438579D01*
X12760539Y-14438579D02*
X12770063Y-14419531D01*
X12770063Y-14419531D02*
X12779586Y-14410008D01*
X12779586Y-14410008D02*
X12798634Y-14400484D01*
X12951015Y-14581436D02*
X12960539Y-14590960D01*
X12960539Y-14590960D02*
X12951015Y-14600484D01*
X12951015Y-14600484D02*
X12941491Y-14590960D01*
X12941491Y-14590960D02*
X12951015Y-14581436D01*
X12951015Y-14581436D02*
X12951015Y-14600484D01*
X13084348Y-14400484D02*
X13103396Y-14400484D01*
X13103396Y-14400484D02*
X13122444Y-14410008D01*
X13122444Y-14410008D02*
X13131967Y-14419531D01*
X13131967Y-14419531D02*
X13141491Y-14438579D01*
X13141491Y-14438579D02*
X13151015Y-14476674D01*
X13151015Y-14476674D02*
X13151015Y-14524293D01*
X13151015Y-14524293D02*
X13141491Y-14562388D01*
X13141491Y-14562388D02*
X13131967Y-14581436D01*
X13131967Y-14581436D02*
X13122444Y-14590960D01*
X13122444Y-14590960D02*
X13103396Y-14600484D01*
X13103396Y-14600484D02*
X13084348Y-14600484D01*
X13084348Y-14600484D02*
X13065301Y-14590960D01*
X13065301Y-14590960D02*
X13055777Y-14581436D01*
X13055777Y-14581436D02*
X13046253Y-14562388D01*
X13046253Y-14562388D02*
X13036729Y-14524293D01*
X13036729Y-14524293D02*
X13036729Y-14476674D01*
X13036729Y-14476674D02*
X13046253Y-14438579D01*
X13046253Y-14438579D02*
X13055777Y-14419531D01*
X13055777Y-14419531D02*
X13065301Y-14410008D01*
X13065301Y-14410008D02*
X13084348Y-14400484D01*
X13331967Y-14400484D02*
X13236729Y-14400484D01*
X13236729Y-14400484D02*
X13227206Y-14495722D01*
X13227206Y-14495722D02*
X13236729Y-14486198D01*
X13236729Y-14486198D02*
X13255777Y-14476674D01*
X13255777Y-14476674D02*
X13303396Y-14476674D01*
X13303396Y-14476674D02*
X13322444Y-14486198D01*
X13322444Y-14486198D02*
X13331967Y-14495722D01*
X13331967Y-14495722D02*
X13341491Y-14514769D01*
X13341491Y-14514769D02*
X13341491Y-14562388D01*
X13341491Y-14562388D02*
X13331967Y-14581436D01*
X13331967Y-14581436D02*
X13322444Y-14590960D01*
X13322444Y-14590960D02*
X13303396Y-14600484D01*
X13303396Y-14600484D02*
X13255777Y-14600484D01*
X13255777Y-14600484D02*
X13236729Y-14590960D01*
X13236729Y-14590960D02*
X13227206Y-14581436D01*
X13436729Y-14600484D02*
X13474825Y-14600484D01*
X13474825Y-14600484D02*
X13493872Y-14590960D01*
X13493872Y-14590960D02*
X13503396Y-14581436D01*
X13503396Y-14581436D02*
X13522444Y-14552865D01*
X13522444Y-14552865D02*
X13531967Y-14514769D01*
X13531967Y-14514769D02*
X13531967Y-14438579D01*
X13531967Y-14438579D02*
X13522444Y-14419531D01*
X13522444Y-14419531D02*
X13512920Y-14410008D01*
X13512920Y-14410008D02*
X13493872Y-14400484D01*
X13493872Y-14400484D02*
X13455777Y-14400484D01*
X13455777Y-14400484D02*
X13436729Y-14410008D01*
X13436729Y-14410008D02*
X13427206Y-14419531D01*
X13427206Y-14419531D02*
X13417682Y-14438579D01*
X13417682Y-14438579D02*
X13417682Y-14486198D01*
X13417682Y-14486198D02*
X13427206Y-14505246D01*
X13427206Y-14505246D02*
X13436729Y-14514769D01*
X13436729Y-14514769D02*
X13455777Y-14524293D01*
X13455777Y-14524293D02*
X13493872Y-14524293D01*
X13493872Y-14524293D02*
X13512920Y-14514769D01*
X13512920Y-14514769D02*
X13522444Y-14505246D01*
X13522444Y-14505246D02*
X13531967Y-14486198D01*
X13722444Y-14600484D02*
X13608158Y-14600484D01*
X13665301Y-14600484D02*
X13665301Y-14400484D01*
X13665301Y-14400484D02*
X13646253Y-14429055D01*
X13646253Y-14429055D02*
X13627206Y-14448103D01*
X13627206Y-14448103D02*
X13608158Y-14457627D01*
X13798634Y-14400484D02*
X13798634Y-14438579D01*
X13874825Y-14400484D02*
X13874825Y-14438579D01*
X14170063Y-14676674D02*
X14160539Y-14667150D01*
X14160539Y-14667150D02*
X14141491Y-14638579D01*
X14141491Y-14638579D02*
X14131968Y-14619531D01*
X14131968Y-14619531D02*
X14122444Y-14590960D01*
X14122444Y-14590960D02*
X14112920Y-14543341D01*
X14112920Y-14543341D02*
X14112920Y-14505246D01*
X14112920Y-14505246D02*
X14122444Y-14457627D01*
X14122444Y-14457627D02*
X14131968Y-14429055D01*
X14131968Y-14429055D02*
X14141491Y-14410008D01*
X14141491Y-14410008D02*
X14160539Y-14381436D01*
X14160539Y-14381436D02*
X14170063Y-14371912D01*
X14351015Y-14600484D02*
X14236729Y-14600484D01*
X14293872Y-14600484D02*
X14293872Y-14400484D01*
X14293872Y-14400484D02*
X14274825Y-14429055D01*
X14274825Y-14429055D02*
X14255777Y-14448103D01*
X14255777Y-14448103D02*
X14236729Y-14457627D01*
X14522444Y-14400484D02*
X14484348Y-14400484D01*
X14484348Y-14400484D02*
X14465301Y-14410008D01*
X14465301Y-14410008D02*
X14455777Y-14419531D01*
X14455777Y-14419531D02*
X14436729Y-14448103D01*
X14436729Y-14448103D02*
X14427206Y-14486198D01*
X14427206Y-14486198D02*
X14427206Y-14562388D01*
X14427206Y-14562388D02*
X14436729Y-14581436D01*
X14436729Y-14581436D02*
X14446253Y-14590960D01*
X14446253Y-14590960D02*
X14465301Y-14600484D01*
X14465301Y-14600484D02*
X14503396Y-14600484D01*
X14503396Y-14600484D02*
X14522444Y-14590960D01*
X14522444Y-14590960D02*
X14531968Y-14581436D01*
X14531968Y-14581436D02*
X14541491Y-14562388D01*
X14541491Y-14562388D02*
X14541491Y-14514769D01*
X14541491Y-14514769D02*
X14531968Y-14495722D01*
X14531968Y-14495722D02*
X14522444Y-14486198D01*
X14522444Y-14486198D02*
X14503396Y-14476674D01*
X14503396Y-14476674D02*
X14465301Y-14476674D01*
X14465301Y-14476674D02*
X14446253Y-14486198D01*
X14446253Y-14486198D02*
X14436729Y-14495722D01*
X14436729Y-14495722D02*
X14427206Y-14514769D01*
X14779587Y-14600484D02*
X14779587Y-14400484D01*
X14865301Y-14600484D02*
X14865301Y-14495722D01*
X14865301Y-14495722D02*
X14855777Y-14476674D01*
X14855777Y-14476674D02*
X14836730Y-14467150D01*
X14836730Y-14467150D02*
X14808158Y-14467150D01*
X14808158Y-14467150D02*
X14789110Y-14476674D01*
X14789110Y-14476674D02*
X14779587Y-14486198D01*
X14989110Y-14600484D02*
X14970063Y-14590960D01*
X14970063Y-14590960D02*
X14960539Y-14581436D01*
X14960539Y-14581436D02*
X14951015Y-14562388D01*
X14951015Y-14562388D02*
X14951015Y-14505246D01*
X14951015Y-14505246D02*
X14960539Y-14486198D01*
X14960539Y-14486198D02*
X14970063Y-14476674D01*
X14970063Y-14476674D02*
X14989110Y-14467150D01*
X14989110Y-14467150D02*
X15017682Y-14467150D01*
X15017682Y-14467150D02*
X15036730Y-14476674D01*
X15036730Y-14476674D02*
X15046253Y-14486198D01*
X15046253Y-14486198D02*
X15055777Y-14505246D01*
X15055777Y-14505246D02*
X15055777Y-14562388D01*
X15055777Y-14562388D02*
X15046253Y-14581436D01*
X15046253Y-14581436D02*
X15036730Y-14590960D01*
X15036730Y-14590960D02*
X15017682Y-14600484D01*
X15017682Y-14600484D02*
X14989110Y-14600484D01*
X15170063Y-14600484D02*
X15151015Y-14590960D01*
X15151015Y-14590960D02*
X15141491Y-14571912D01*
X15141491Y-14571912D02*
X15141491Y-14400484D01*
X15322444Y-14590960D02*
X15303396Y-14600484D01*
X15303396Y-14600484D02*
X15265301Y-14600484D01*
X15265301Y-14600484D02*
X15246253Y-14590960D01*
X15246253Y-14590960D02*
X15236730Y-14571912D01*
X15236730Y-14571912D02*
X15236730Y-14495722D01*
X15236730Y-14495722D02*
X15246253Y-14476674D01*
X15246253Y-14476674D02*
X15265301Y-14467150D01*
X15265301Y-14467150D02*
X15303396Y-14467150D01*
X15303396Y-14467150D02*
X15322444Y-14476674D01*
X15322444Y-14476674D02*
X15331968Y-14495722D01*
X15331968Y-14495722D02*
X15331968Y-14514769D01*
X15331968Y-14514769D02*
X15236730Y-14533817D01*
X15408158Y-14590960D02*
X15427206Y-14600484D01*
X15427206Y-14600484D02*
X15465301Y-14600484D01*
X15465301Y-14600484D02*
X15484349Y-14590960D01*
X15484349Y-14590960D02*
X15493872Y-14571912D01*
X15493872Y-14571912D02*
X15493872Y-14562388D01*
X15493872Y-14562388D02*
X15484349Y-14543341D01*
X15484349Y-14543341D02*
X15465301Y-14533817D01*
X15465301Y-14533817D02*
X15436730Y-14533817D01*
X15436730Y-14533817D02*
X15417682Y-14524293D01*
X15417682Y-14524293D02*
X15408158Y-14505246D01*
X15408158Y-14505246D02*
X15408158Y-14495722D01*
X15408158Y-14495722D02*
X15417682Y-14476674D01*
X15417682Y-14476674D02*
X15436730Y-14467150D01*
X15436730Y-14467150D02*
X15465301Y-14467150D01*
X15465301Y-14467150D02*
X15484349Y-14476674D01*
X15560539Y-14676674D02*
X15570063Y-14667150D01*
X15570063Y-14667150D02*
X15589111Y-14638579D01*
X15589111Y-14638579D02*
X15598634Y-14619531D01*
X15598634Y-14619531D02*
X15608158Y-14590960D01*
X15608158Y-14590960D02*
X15617682Y-14543341D01*
X15617682Y-14543341D02*
X15617682Y-14505246D01*
X15617682Y-14505246D02*
X15608158Y-14457627D01*
X15608158Y-14457627D02*
X15598634Y-14429055D01*
X15598634Y-14429055D02*
X15589111Y-14410008D01*
X15589111Y-14410008D02*
X15570063Y-14381436D01*
X15570063Y-14381436D02*
X15560539Y-14371912D01*
D13*
X10496000Y-14680000D02*
X10496000Y-14878000D01*
X10397000Y-14779000D02*
X10595000Y-14779000D01*
D11*
X10960539Y-14870484D02*
X10846253Y-14870484D01*
X10903396Y-14870484D02*
X10903396Y-14670484D01*
X10903396Y-14670484D02*
X10884348Y-14699055D01*
X10884348Y-14699055D02*
X10865301Y-14718103D01*
X10865301Y-14718103D02*
X10846253Y-14727627D01*
X11046253Y-14851436D02*
X11055777Y-14860960D01*
X11055777Y-14860960D02*
X11046253Y-14870484D01*
X11046253Y-14870484D02*
X11036729Y-14860960D01*
X11036729Y-14860960D02*
X11046253Y-14851436D01*
X11046253Y-14851436D02*
X11046253Y-14870484D01*
X11151015Y-14870484D02*
X11189110Y-14870484D01*
X11189110Y-14870484D02*
X11208158Y-14860960D01*
X11208158Y-14860960D02*
X11217682Y-14851436D01*
X11217682Y-14851436D02*
X11236729Y-14822865D01*
X11236729Y-14822865D02*
X11246253Y-14784769D01*
X11246253Y-14784769D02*
X11246253Y-14708579D01*
X11246253Y-14708579D02*
X11236729Y-14689531D01*
X11236729Y-14689531D02*
X11227205Y-14680008D01*
X11227205Y-14680008D02*
X11208158Y-14670484D01*
X11208158Y-14670484D02*
X11170063Y-14670484D01*
X11170063Y-14670484D02*
X11151015Y-14680008D01*
X11151015Y-14680008D02*
X11141491Y-14689531D01*
X11141491Y-14689531D02*
X11131967Y-14708579D01*
X11131967Y-14708579D02*
X11131967Y-14756198D01*
X11131967Y-14756198D02*
X11141491Y-14775246D01*
X11141491Y-14775246D02*
X11151015Y-14784769D01*
X11151015Y-14784769D02*
X11170063Y-14794293D01*
X11170063Y-14794293D02*
X11208158Y-14794293D01*
X11208158Y-14794293D02*
X11227205Y-14784769D01*
X11227205Y-14784769D02*
X11236729Y-14775246D01*
X11236729Y-14775246D02*
X11246253Y-14756198D01*
X11360539Y-14756198D02*
X11341491Y-14746674D01*
X11341491Y-14746674D02*
X11331967Y-14737150D01*
X11331967Y-14737150D02*
X11322443Y-14718103D01*
X11322443Y-14718103D02*
X11322443Y-14708579D01*
X11322443Y-14708579D02*
X11331967Y-14689531D01*
X11331967Y-14689531D02*
X11341491Y-14680008D01*
X11341491Y-14680008D02*
X11360539Y-14670484D01*
X11360539Y-14670484D02*
X11398634Y-14670484D01*
X11398634Y-14670484D02*
X11417682Y-14680008D01*
X11417682Y-14680008D02*
X11427205Y-14689531D01*
X11427205Y-14689531D02*
X11436729Y-14708579D01*
X11436729Y-14708579D02*
X11436729Y-14718103D01*
X11436729Y-14718103D02*
X11427205Y-14737150D01*
X11427205Y-14737150D02*
X11417682Y-14746674D01*
X11417682Y-14746674D02*
X11398634Y-14756198D01*
X11398634Y-14756198D02*
X11360539Y-14756198D01*
X11360539Y-14756198D02*
X11341491Y-14765722D01*
X11341491Y-14765722D02*
X11331967Y-14775246D01*
X11331967Y-14775246D02*
X11322443Y-14794293D01*
X11322443Y-14794293D02*
X11322443Y-14832388D01*
X11322443Y-14832388D02*
X11331967Y-14851436D01*
X11331967Y-14851436D02*
X11341491Y-14860960D01*
X11341491Y-14860960D02*
X11360539Y-14870484D01*
X11360539Y-14870484D02*
X11398634Y-14870484D01*
X11398634Y-14870484D02*
X11417682Y-14860960D01*
X11417682Y-14860960D02*
X11427205Y-14851436D01*
X11427205Y-14851436D02*
X11436729Y-14832388D01*
X11436729Y-14832388D02*
X11436729Y-14794293D01*
X11436729Y-14794293D02*
X11427205Y-14775246D01*
X11427205Y-14775246D02*
X11417682Y-14765722D01*
X11417682Y-14765722D02*
X11398634Y-14756198D01*
X11560539Y-14670484D02*
X11579586Y-14670484D01*
X11579586Y-14670484D02*
X11598634Y-14680008D01*
X11598634Y-14680008D02*
X11608158Y-14689531D01*
X11608158Y-14689531D02*
X11617682Y-14708579D01*
X11617682Y-14708579D02*
X11627205Y-14746674D01*
X11627205Y-14746674D02*
X11627205Y-14794293D01*
X11627205Y-14794293D02*
X11617682Y-14832388D01*
X11617682Y-14832388D02*
X11608158Y-14851436D01*
X11608158Y-14851436D02*
X11598634Y-14860960D01*
X11598634Y-14860960D02*
X11579586Y-14870484D01*
X11579586Y-14870484D02*
X11560539Y-14870484D01*
X11560539Y-14870484D02*
X11541491Y-14860960D01*
X11541491Y-14860960D02*
X11531967Y-14851436D01*
X11531967Y-14851436D02*
X11522443Y-14832388D01*
X11522443Y-14832388D02*
X11512920Y-14794293D01*
X11512920Y-14794293D02*
X11512920Y-14746674D01*
X11512920Y-14746674D02*
X11522443Y-14708579D01*
X11522443Y-14708579D02*
X11531967Y-14689531D01*
X11531967Y-14689531D02*
X11541491Y-14680008D01*
X11541491Y-14680008D02*
X11560539Y-14670484D01*
X11712920Y-14870484D02*
X11712920Y-14737150D01*
X11712920Y-14756198D02*
X11722443Y-14746674D01*
X11722443Y-14746674D02*
X11741491Y-14737150D01*
X11741491Y-14737150D02*
X11770063Y-14737150D01*
X11770063Y-14737150D02*
X11789110Y-14746674D01*
X11789110Y-14746674D02*
X11798634Y-14765722D01*
X11798634Y-14765722D02*
X11798634Y-14870484D01*
X11798634Y-14765722D02*
X11808158Y-14746674D01*
X11808158Y-14746674D02*
X11827205Y-14737150D01*
X11827205Y-14737150D02*
X11855777Y-14737150D01*
X11855777Y-14737150D02*
X11874824Y-14746674D01*
X11874824Y-14746674D02*
X11884348Y-14765722D01*
X11884348Y-14765722D02*
X11884348Y-14870484D01*
X11979586Y-14870484D02*
X11979586Y-14737150D01*
X11979586Y-14756198D02*
X11989110Y-14746674D01*
X11989110Y-14746674D02*
X12008158Y-14737150D01*
X12008158Y-14737150D02*
X12036729Y-14737150D01*
X12036729Y-14737150D02*
X12055777Y-14746674D01*
X12055777Y-14746674D02*
X12065301Y-14765722D01*
X12065301Y-14765722D02*
X12065301Y-14870484D01*
X12065301Y-14765722D02*
X12074824Y-14746674D01*
X12074824Y-14746674D02*
X12093872Y-14737150D01*
X12093872Y-14737150D02*
X12122443Y-14737150D01*
X12122443Y-14737150D02*
X12141491Y-14746674D01*
X12141491Y-14746674D02*
X12151015Y-14765722D01*
X12151015Y-14765722D02*
X12151015Y-14870484D01*
X12541491Y-14660960D02*
X12370063Y-14918103D01*
X12798634Y-14670484D02*
X12817682Y-14670484D01*
X12817682Y-14670484D02*
X12836729Y-14680008D01*
X12836729Y-14680008D02*
X12846253Y-14689531D01*
X12846253Y-14689531D02*
X12855777Y-14708579D01*
X12855777Y-14708579D02*
X12865301Y-14746674D01*
X12865301Y-14746674D02*
X12865301Y-14794293D01*
X12865301Y-14794293D02*
X12855777Y-14832388D01*
X12855777Y-14832388D02*
X12846253Y-14851436D01*
X12846253Y-14851436D02*
X12836729Y-14860960D01*
X12836729Y-14860960D02*
X12817682Y-14870484D01*
X12817682Y-14870484D02*
X12798634Y-14870484D01*
X12798634Y-14870484D02*
X12779586Y-14860960D01*
X12779586Y-14860960D02*
X12770063Y-14851436D01*
X12770063Y-14851436D02*
X12760539Y-14832388D01*
X12760539Y-14832388D02*
X12751015Y-14794293D01*
X12751015Y-14794293D02*
X12751015Y-14746674D01*
X12751015Y-14746674D02*
X12760539Y-14708579D01*
X12760539Y-14708579D02*
X12770063Y-14689531D01*
X12770063Y-14689531D02*
X12779586Y-14680008D01*
X12779586Y-14680008D02*
X12798634Y-14670484D01*
X12951015Y-14851436D02*
X12960539Y-14860960D01*
X12960539Y-14860960D02*
X12951015Y-14870484D01*
X12951015Y-14870484D02*
X12941491Y-14860960D01*
X12941491Y-14860960D02*
X12951015Y-14851436D01*
X12951015Y-14851436D02*
X12951015Y-14870484D01*
X13084348Y-14670484D02*
X13103396Y-14670484D01*
X13103396Y-14670484D02*
X13122444Y-14680008D01*
X13122444Y-14680008D02*
X13131967Y-14689531D01*
X13131967Y-14689531D02*
X13141491Y-14708579D01*
X13141491Y-14708579D02*
X13151015Y-14746674D01*
X13151015Y-14746674D02*
X13151015Y-14794293D01*
X13151015Y-14794293D02*
X13141491Y-14832388D01*
X13141491Y-14832388D02*
X13131967Y-14851436D01*
X13131967Y-14851436D02*
X13122444Y-14860960D01*
X13122444Y-14860960D02*
X13103396Y-14870484D01*
X13103396Y-14870484D02*
X13084348Y-14870484D01*
X13084348Y-14870484D02*
X13065301Y-14860960D01*
X13065301Y-14860960D02*
X13055777Y-14851436D01*
X13055777Y-14851436D02*
X13046253Y-14832388D01*
X13046253Y-14832388D02*
X13036729Y-14794293D01*
X13036729Y-14794293D02*
X13036729Y-14746674D01*
X13036729Y-14746674D02*
X13046253Y-14708579D01*
X13046253Y-14708579D02*
X13055777Y-14689531D01*
X13055777Y-14689531D02*
X13065301Y-14680008D01*
X13065301Y-14680008D02*
X13084348Y-14670484D01*
X13217682Y-14670484D02*
X13351015Y-14670484D01*
X13351015Y-14670484D02*
X13265301Y-14870484D01*
X13455777Y-14756198D02*
X13436729Y-14746674D01*
X13436729Y-14746674D02*
X13427206Y-14737150D01*
X13427206Y-14737150D02*
X13417682Y-14718103D01*
X13417682Y-14718103D02*
X13417682Y-14708579D01*
X13417682Y-14708579D02*
X13427206Y-14689531D01*
X13427206Y-14689531D02*
X13436729Y-14680008D01*
X13436729Y-14680008D02*
X13455777Y-14670484D01*
X13455777Y-14670484D02*
X13493872Y-14670484D01*
X13493872Y-14670484D02*
X13512920Y-14680008D01*
X13512920Y-14680008D02*
X13522444Y-14689531D01*
X13522444Y-14689531D02*
X13531967Y-14708579D01*
X13531967Y-14708579D02*
X13531967Y-14718103D01*
X13531967Y-14718103D02*
X13522444Y-14737150D01*
X13522444Y-14737150D02*
X13512920Y-14746674D01*
X13512920Y-14746674D02*
X13493872Y-14756198D01*
X13493872Y-14756198D02*
X13455777Y-14756198D01*
X13455777Y-14756198D02*
X13436729Y-14765722D01*
X13436729Y-14765722D02*
X13427206Y-14775246D01*
X13427206Y-14775246D02*
X13417682Y-14794293D01*
X13417682Y-14794293D02*
X13417682Y-14832388D01*
X13417682Y-14832388D02*
X13427206Y-14851436D01*
X13427206Y-14851436D02*
X13436729Y-14860960D01*
X13436729Y-14860960D02*
X13455777Y-14870484D01*
X13455777Y-14870484D02*
X13493872Y-14870484D01*
X13493872Y-14870484D02*
X13512920Y-14860960D01*
X13512920Y-14860960D02*
X13522444Y-14851436D01*
X13522444Y-14851436D02*
X13531967Y-14832388D01*
X13531967Y-14832388D02*
X13531967Y-14794293D01*
X13531967Y-14794293D02*
X13522444Y-14775246D01*
X13522444Y-14775246D02*
X13512920Y-14765722D01*
X13512920Y-14765722D02*
X13493872Y-14756198D01*
X13655777Y-14670484D02*
X13674825Y-14670484D01*
X13674825Y-14670484D02*
X13693872Y-14680008D01*
X13693872Y-14680008D02*
X13703396Y-14689531D01*
X13703396Y-14689531D02*
X13712920Y-14708579D01*
X13712920Y-14708579D02*
X13722444Y-14746674D01*
X13722444Y-14746674D02*
X13722444Y-14794293D01*
X13722444Y-14794293D02*
X13712920Y-14832388D01*
X13712920Y-14832388D02*
X13703396Y-14851436D01*
X13703396Y-14851436D02*
X13693872Y-14860960D01*
X13693872Y-14860960D02*
X13674825Y-14870484D01*
X13674825Y-14870484D02*
X13655777Y-14870484D01*
X13655777Y-14870484D02*
X13636729Y-14860960D01*
X13636729Y-14860960D02*
X13627206Y-14851436D01*
X13627206Y-14851436D02*
X13617682Y-14832388D01*
X13617682Y-14832388D02*
X13608158Y-14794293D01*
X13608158Y-14794293D02*
X13608158Y-14746674D01*
X13608158Y-14746674D02*
X13617682Y-14708579D01*
X13617682Y-14708579D02*
X13627206Y-14689531D01*
X13627206Y-14689531D02*
X13636729Y-14680008D01*
X13636729Y-14680008D02*
X13655777Y-14670484D01*
X13798634Y-14670484D02*
X13798634Y-14708579D01*
X13874825Y-14670484D02*
X13874825Y-14708579D01*
X14170063Y-14946674D02*
X14160539Y-14937150D01*
X14160539Y-14937150D02*
X14141491Y-14908579D01*
X14141491Y-14908579D02*
X14131968Y-14889531D01*
X14131968Y-14889531D02*
X14122444Y-14860960D01*
X14122444Y-14860960D02*
X14112920Y-14813341D01*
X14112920Y-14813341D02*
X14112920Y-14775246D01*
X14112920Y-14775246D02*
X14122444Y-14727627D01*
X14122444Y-14727627D02*
X14131968Y-14699055D01*
X14131968Y-14699055D02*
X14141491Y-14680008D01*
X14141491Y-14680008D02*
X14160539Y-14651436D01*
X14160539Y-14651436D02*
X14170063Y-14641912D01*
X14331968Y-14737150D02*
X14331968Y-14870484D01*
X14284348Y-14660960D02*
X14236729Y-14803817D01*
X14236729Y-14803817D02*
X14360539Y-14803817D01*
X14589110Y-14870484D02*
X14589110Y-14670484D01*
X14674825Y-14870484D02*
X14674825Y-14765722D01*
X14674825Y-14765722D02*
X14665301Y-14746674D01*
X14665301Y-14746674D02*
X14646253Y-14737150D01*
X14646253Y-14737150D02*
X14617682Y-14737150D01*
X14617682Y-14737150D02*
X14598634Y-14746674D01*
X14598634Y-14746674D02*
X14589110Y-14756198D01*
X14798634Y-14870484D02*
X14779587Y-14860960D01*
X14779587Y-14860960D02*
X14770063Y-14851436D01*
X14770063Y-14851436D02*
X14760539Y-14832388D01*
X14760539Y-14832388D02*
X14760539Y-14775246D01*
X14760539Y-14775246D02*
X14770063Y-14756198D01*
X14770063Y-14756198D02*
X14779587Y-14746674D01*
X14779587Y-14746674D02*
X14798634Y-14737150D01*
X14798634Y-14737150D02*
X14827206Y-14737150D01*
X14827206Y-14737150D02*
X14846253Y-14746674D01*
X14846253Y-14746674D02*
X14855777Y-14756198D01*
X14855777Y-14756198D02*
X14865301Y-14775246D01*
X14865301Y-14775246D02*
X14865301Y-14832388D01*
X14865301Y-14832388D02*
X14855777Y-14851436D01*
X14855777Y-14851436D02*
X14846253Y-14860960D01*
X14846253Y-14860960D02*
X14827206Y-14870484D01*
X14827206Y-14870484D02*
X14798634Y-14870484D01*
X14979587Y-14870484D02*
X14960539Y-14860960D01*
X14960539Y-14860960D02*
X14951015Y-14841912D01*
X14951015Y-14841912D02*
X14951015Y-14670484D01*
X15131968Y-14860960D02*
X15112920Y-14870484D01*
X15112920Y-14870484D02*
X15074825Y-14870484D01*
X15074825Y-14870484D02*
X15055777Y-14860960D01*
X15055777Y-14860960D02*
X15046253Y-14841912D01*
X15046253Y-14841912D02*
X15046253Y-14765722D01*
X15046253Y-14765722D02*
X15055777Y-14746674D01*
X15055777Y-14746674D02*
X15074825Y-14737150D01*
X15074825Y-14737150D02*
X15112920Y-14737150D01*
X15112920Y-14737150D02*
X15131968Y-14746674D01*
X15131968Y-14746674D02*
X15141491Y-14765722D01*
X15141491Y-14765722D02*
X15141491Y-14784769D01*
X15141491Y-14784769D02*
X15046253Y-14803817D01*
X15217682Y-14860960D02*
X15236730Y-14870484D01*
X15236730Y-14870484D02*
X15274825Y-14870484D01*
X15274825Y-14870484D02*
X15293872Y-14860960D01*
X15293872Y-14860960D02*
X15303396Y-14841912D01*
X15303396Y-14841912D02*
X15303396Y-14832388D01*
X15303396Y-14832388D02*
X15293872Y-14813341D01*
X15293872Y-14813341D02*
X15274825Y-14803817D01*
X15274825Y-14803817D02*
X15246253Y-14803817D01*
X15246253Y-14803817D02*
X15227206Y-14794293D01*
X15227206Y-14794293D02*
X15217682Y-14775246D01*
X15217682Y-14775246D02*
X15217682Y-14765722D01*
X15217682Y-14765722D02*
X15227206Y-14746674D01*
X15227206Y-14746674D02*
X15246253Y-14737150D01*
X15246253Y-14737150D02*
X15274825Y-14737150D01*
X15274825Y-14737150D02*
X15293872Y-14746674D01*
X15370063Y-14946674D02*
X15379587Y-14937150D01*
X15379587Y-14937150D02*
X15398634Y-14908579D01*
X15398634Y-14908579D02*
X15408158Y-14889531D01*
X15408158Y-14889531D02*
X15417682Y-14860960D01*
X15417682Y-14860960D02*
X15427206Y-14813341D01*
X15427206Y-14813341D02*
X15427206Y-14775246D01*
X15427206Y-14775246D02*
X15417682Y-14727627D01*
X15417682Y-14727627D02*
X15408158Y-14699055D01*
X15408158Y-14699055D02*
X15398634Y-14680008D01*
X15398634Y-14680008D02*
X15379587Y-14651436D01*
X15379587Y-14651436D02*
X15370063Y-14641912D01*
M02*
