G04 #@! TF.GenerationSoftware,KiCad,Pcbnew,8.0.2*
G04 #@! TF.CreationDate,2024-05-30T20:37:43+12:00*
G04 #@! TF.ProjectId,PDP-FUSE,5044502d-4655-4534-952e-6b696361645f,rev?*
G04 #@! TF.SameCoordinates,Original*
G04 #@! TF.FileFunction,Legend,Top*
G04 #@! TF.FilePolarity,Positive*
%FSLAX46Y46*%
G04 Gerber Fmt 4.6, Leading zero omitted, Abs format (unit mm)*
G04 Created by KiCad (PCBNEW 8.0.2) date 2024-05-30 20:37:43*
%MOMM*%
%LPD*%
G01*
G04 APERTURE LIST*
G04 Aperture macros list*
%AMRoundRect*
0 Rectangle with rounded corners*
0 $1 Rounding radius*
0 $2 $3 $4 $5 $6 $7 $8 $9 X,Y pos of 4 corners*
0 Add a 4 corners polygon primitive as box body*
4,1,4,$2,$3,$4,$5,$6,$7,$8,$9,$2,$3,0*
0 Add four circle primitives for the rounded corners*
1,1,$1+$1,$2,$3*
1,1,$1+$1,$4,$5*
1,1,$1+$1,$6,$7*
1,1,$1+$1,$8,$9*
0 Add four rect primitives between the rounded corners*
20,1,$1+$1,$2,$3,$4,$5,0*
20,1,$1+$1,$4,$5,$6,$7,0*
20,1,$1+$1,$6,$7,$8,$9,0*
20,1,$1+$1,$8,$9,$2,$3,0*%
G04 Aperture macros list end*
%ADD10C,0.150000*%
%ADD11C,0.120000*%
%ADD12C,1.700000*%
%ADD13C,3.200000*%
%ADD14RoundRect,0.800000X0.800000X-0.800000X0.800000X0.800000X-0.800000X0.800000X-0.800000X-0.800000X0*%
%ADD15RoundRect,0.750000X-0.750000X-0.750000X0.750000X-0.750000X0.750000X0.750000X-0.750000X0.750000X0*%
%ADD16C,3.000000*%
%ADD17R,1.700000X1.700000*%
%ADD18O,1.700000X1.700000*%
G04 APERTURE END LIST*
D10*
X137658722Y-87007819D02*
X138230150Y-87007819D01*
X137944436Y-88007819D02*
X137944436Y-87007819D01*
X138753960Y-87007819D02*
X138944436Y-87007819D01*
X138944436Y-87007819D02*
X139039674Y-87055438D01*
X139039674Y-87055438D02*
X139134912Y-87150676D01*
X139134912Y-87150676D02*
X139182531Y-87341152D01*
X139182531Y-87341152D02*
X139182531Y-87674485D01*
X139182531Y-87674485D02*
X139134912Y-87864961D01*
X139134912Y-87864961D02*
X139039674Y-87960200D01*
X139039674Y-87960200D02*
X138944436Y-88007819D01*
X138944436Y-88007819D02*
X138753960Y-88007819D01*
X138753960Y-88007819D02*
X138658722Y-87960200D01*
X138658722Y-87960200D02*
X138563484Y-87864961D01*
X138563484Y-87864961D02*
X138515865Y-87674485D01*
X138515865Y-87674485D02*
X138515865Y-87341152D01*
X138515865Y-87341152D02*
X138563484Y-87150676D01*
X138563484Y-87150676D02*
X138658722Y-87055438D01*
X138658722Y-87055438D02*
X138753960Y-87007819D01*
X139611103Y-88007819D02*
X139611103Y-87007819D01*
X139611103Y-87007819D02*
X139992055Y-87007819D01*
X139992055Y-87007819D02*
X140087293Y-87055438D01*
X140087293Y-87055438D02*
X140134912Y-87103057D01*
X140134912Y-87103057D02*
X140182531Y-87198295D01*
X140182531Y-87198295D02*
X140182531Y-87341152D01*
X140182531Y-87341152D02*
X140134912Y-87436390D01*
X140134912Y-87436390D02*
X140087293Y-87484009D01*
X140087293Y-87484009D02*
X139992055Y-87531628D01*
X139992055Y-87531628D02*
X139611103Y-87531628D01*
X131094286Y-130233057D02*
X131141905Y-130185438D01*
X131141905Y-130185438D02*
X131237143Y-130137819D01*
X131237143Y-130137819D02*
X131475238Y-130137819D01*
X131475238Y-130137819D02*
X131570476Y-130185438D01*
X131570476Y-130185438D02*
X131618095Y-130233057D01*
X131618095Y-130233057D02*
X131665714Y-130328295D01*
X131665714Y-130328295D02*
X131665714Y-130423533D01*
X131665714Y-130423533D02*
X131618095Y-130566390D01*
X131618095Y-130566390D02*
X131046667Y-131137819D01*
X131046667Y-131137819D02*
X131665714Y-131137819D01*
X139238095Y-130137819D02*
X138761905Y-130137819D01*
X138761905Y-130137819D02*
X138714286Y-130614009D01*
X138714286Y-130614009D02*
X138761905Y-130566390D01*
X138761905Y-130566390D02*
X138857143Y-130518771D01*
X138857143Y-130518771D02*
X139095238Y-130518771D01*
X139095238Y-130518771D02*
X139190476Y-130566390D01*
X139190476Y-130566390D02*
X139238095Y-130614009D01*
X139238095Y-130614009D02*
X139285714Y-130709247D01*
X139285714Y-130709247D02*
X139285714Y-130947342D01*
X139285714Y-130947342D02*
X139238095Y-131042580D01*
X139238095Y-131042580D02*
X139190476Y-131090200D01*
X139190476Y-131090200D02*
X139095238Y-131137819D01*
X139095238Y-131137819D02*
X138857143Y-131137819D01*
X138857143Y-131137819D02*
X138761905Y-131090200D01*
X138761905Y-131090200D02*
X138714286Y-131042580D01*
X143746667Y-130137819D02*
X144413333Y-130137819D01*
X144413333Y-130137819D02*
X143984762Y-131137819D01*
X141730476Y-130137819D02*
X141540000Y-130137819D01*
X141540000Y-130137819D02*
X141444762Y-130185438D01*
X141444762Y-130185438D02*
X141397143Y-130233057D01*
X141397143Y-130233057D02*
X141301905Y-130375914D01*
X141301905Y-130375914D02*
X141254286Y-130566390D01*
X141254286Y-130566390D02*
X141254286Y-130947342D01*
X141254286Y-130947342D02*
X141301905Y-131042580D01*
X141301905Y-131042580D02*
X141349524Y-131090200D01*
X141349524Y-131090200D02*
X141444762Y-131137819D01*
X141444762Y-131137819D02*
X141635238Y-131137819D01*
X141635238Y-131137819D02*
X141730476Y-131090200D01*
X141730476Y-131090200D02*
X141778095Y-131042580D01*
X141778095Y-131042580D02*
X141825714Y-130947342D01*
X141825714Y-130947342D02*
X141825714Y-130709247D01*
X141825714Y-130709247D02*
X141778095Y-130614009D01*
X141778095Y-130614009D02*
X141730476Y-130566390D01*
X141730476Y-130566390D02*
X141635238Y-130518771D01*
X141635238Y-130518771D02*
X141444762Y-130518771D01*
X141444762Y-130518771D02*
X141349524Y-130566390D01*
X141349524Y-130566390D02*
X141301905Y-130614009D01*
X141301905Y-130614009D02*
X141254286Y-130709247D01*
X136650476Y-130471152D02*
X136650476Y-131137819D01*
X136412381Y-130090200D02*
X136174286Y-130804485D01*
X136174286Y-130804485D02*
X136793333Y-130804485D01*
X136619047Y-102816819D02*
X136047619Y-102816819D01*
X136333333Y-102816819D02*
X136333333Y-101816819D01*
X136333333Y-101816819D02*
X136238095Y-101959676D01*
X136238095Y-101959676D02*
X136142857Y-102054914D01*
X136142857Y-102054914D02*
X136047619Y-102102533D01*
X137523809Y-101816819D02*
X137047619Y-101816819D01*
X137047619Y-101816819D02*
X137000000Y-102293009D01*
X137000000Y-102293009D02*
X137047619Y-102245390D01*
X137047619Y-102245390D02*
X137142857Y-102197771D01*
X137142857Y-102197771D02*
X137380952Y-102197771D01*
X137380952Y-102197771D02*
X137476190Y-102245390D01*
X137476190Y-102245390D02*
X137523809Y-102293009D01*
X137523809Y-102293009D02*
X137571428Y-102388247D01*
X137571428Y-102388247D02*
X137571428Y-102626342D01*
X137571428Y-102626342D02*
X137523809Y-102721580D01*
X137523809Y-102721580D02*
X137476190Y-102769200D01*
X137476190Y-102769200D02*
X137380952Y-102816819D01*
X137380952Y-102816819D02*
X137142857Y-102816819D01*
X137142857Y-102816819D02*
X137047619Y-102769200D01*
X137047619Y-102769200D02*
X137000000Y-102721580D01*
X137952381Y-102531104D02*
X138428571Y-102531104D01*
X137857143Y-102816819D02*
X138190476Y-101816819D01*
X138190476Y-101816819D02*
X138523809Y-102816819D01*
X139523810Y-101816819D02*
X140142857Y-101816819D01*
X140142857Y-101816819D02*
X139809524Y-102197771D01*
X139809524Y-102197771D02*
X139952381Y-102197771D01*
X139952381Y-102197771D02*
X140047619Y-102245390D01*
X140047619Y-102245390D02*
X140095238Y-102293009D01*
X140095238Y-102293009D02*
X140142857Y-102388247D01*
X140142857Y-102388247D02*
X140142857Y-102626342D01*
X140142857Y-102626342D02*
X140095238Y-102721580D01*
X140095238Y-102721580D02*
X140047619Y-102769200D01*
X140047619Y-102769200D02*
X139952381Y-102816819D01*
X139952381Y-102816819D02*
X139666667Y-102816819D01*
X139666667Y-102816819D02*
X139571429Y-102769200D01*
X139571429Y-102769200D02*
X139523810Y-102721580D01*
X140523810Y-101912057D02*
X140571429Y-101864438D01*
X140571429Y-101864438D02*
X140666667Y-101816819D01*
X140666667Y-101816819D02*
X140904762Y-101816819D01*
X140904762Y-101816819D02*
X141000000Y-101864438D01*
X141000000Y-101864438D02*
X141047619Y-101912057D01*
X141047619Y-101912057D02*
X141095238Y-102007295D01*
X141095238Y-102007295D02*
X141095238Y-102102533D01*
X141095238Y-102102533D02*
X141047619Y-102245390D01*
X141047619Y-102245390D02*
X140476191Y-102816819D01*
X140476191Y-102816819D02*
X141095238Y-102816819D01*
X141380953Y-101816819D02*
X141714286Y-102816819D01*
X141714286Y-102816819D02*
X142047619Y-101816819D01*
X168933905Y-102531104D02*
X169410095Y-102531104D01*
X168838667Y-102816819D02*
X169172000Y-101816819D01*
X169172000Y-101816819D02*
X169505333Y-102816819D01*
X170410095Y-102721580D02*
X170362476Y-102769200D01*
X170362476Y-102769200D02*
X170219619Y-102816819D01*
X170219619Y-102816819D02*
X170124381Y-102816819D01*
X170124381Y-102816819D02*
X169981524Y-102769200D01*
X169981524Y-102769200D02*
X169886286Y-102673961D01*
X169886286Y-102673961D02*
X169838667Y-102578723D01*
X169838667Y-102578723D02*
X169791048Y-102388247D01*
X169791048Y-102388247D02*
X169791048Y-102245390D01*
X169791048Y-102245390D02*
X169838667Y-102054914D01*
X169838667Y-102054914D02*
X169886286Y-101959676D01*
X169886286Y-101959676D02*
X169981524Y-101864438D01*
X169981524Y-101864438D02*
X170124381Y-101816819D01*
X170124381Y-101816819D02*
X170219619Y-101816819D01*
X170219619Y-101816819D02*
X170362476Y-101864438D01*
X170362476Y-101864438D02*
X170410095Y-101912057D01*
X107719905Y-102531104D02*
X108196095Y-102531104D01*
X107624667Y-102816819D02*
X107958000Y-101816819D01*
X107958000Y-101816819D02*
X108291333Y-102816819D01*
X109196095Y-102721580D02*
X109148476Y-102769200D01*
X109148476Y-102769200D02*
X109005619Y-102816819D01*
X109005619Y-102816819D02*
X108910381Y-102816819D01*
X108910381Y-102816819D02*
X108767524Y-102769200D01*
X108767524Y-102769200D02*
X108672286Y-102673961D01*
X108672286Y-102673961D02*
X108624667Y-102578723D01*
X108624667Y-102578723D02*
X108577048Y-102388247D01*
X108577048Y-102388247D02*
X108577048Y-102245390D01*
X108577048Y-102245390D02*
X108624667Y-102054914D01*
X108624667Y-102054914D02*
X108672286Y-101959676D01*
X108672286Y-101959676D02*
X108767524Y-101864438D01*
X108767524Y-101864438D02*
X108910381Y-101816819D01*
X108910381Y-101816819D02*
X109005619Y-101816819D01*
X109005619Y-101816819D02*
X109148476Y-101864438D01*
X109148476Y-101864438D02*
X109196095Y-101912057D01*
X129125714Y-131137819D02*
X128554286Y-131137819D01*
X128840000Y-131137819D02*
X128840000Y-130137819D01*
X128840000Y-130137819D02*
X128744762Y-130280676D01*
X128744762Y-130280676D02*
X128649524Y-130375914D01*
X128649524Y-130375914D02*
X128554286Y-130423533D01*
X133586667Y-130137819D02*
X134205714Y-130137819D01*
X134205714Y-130137819D02*
X133872381Y-130518771D01*
X133872381Y-130518771D02*
X134015238Y-130518771D01*
X134015238Y-130518771D02*
X134110476Y-130566390D01*
X134110476Y-130566390D02*
X134158095Y-130614009D01*
X134158095Y-130614009D02*
X134205714Y-130709247D01*
X134205714Y-130709247D02*
X134205714Y-130947342D01*
X134205714Y-130947342D02*
X134158095Y-131042580D01*
X134158095Y-131042580D02*
X134110476Y-131090200D01*
X134110476Y-131090200D02*
X134015238Y-131137819D01*
X134015238Y-131137819D02*
X133729524Y-131137819D01*
X133729524Y-131137819D02*
X133634286Y-131090200D01*
X133634286Y-131090200D02*
X133586667Y-131042580D01*
X146524762Y-130566390D02*
X146429524Y-130518771D01*
X146429524Y-130518771D02*
X146381905Y-130471152D01*
X146381905Y-130471152D02*
X146334286Y-130375914D01*
X146334286Y-130375914D02*
X146334286Y-130328295D01*
X146334286Y-130328295D02*
X146381905Y-130233057D01*
X146381905Y-130233057D02*
X146429524Y-130185438D01*
X146429524Y-130185438D02*
X146524762Y-130137819D01*
X146524762Y-130137819D02*
X146715238Y-130137819D01*
X146715238Y-130137819D02*
X146810476Y-130185438D01*
X146810476Y-130185438D02*
X146858095Y-130233057D01*
X146858095Y-130233057D02*
X146905714Y-130328295D01*
X146905714Y-130328295D02*
X146905714Y-130375914D01*
X146905714Y-130375914D02*
X146858095Y-130471152D01*
X146858095Y-130471152D02*
X146810476Y-130518771D01*
X146810476Y-130518771D02*
X146715238Y-130566390D01*
X146715238Y-130566390D02*
X146524762Y-130566390D01*
X146524762Y-130566390D02*
X146429524Y-130614009D01*
X146429524Y-130614009D02*
X146381905Y-130661628D01*
X146381905Y-130661628D02*
X146334286Y-130756866D01*
X146334286Y-130756866D02*
X146334286Y-130947342D01*
X146334286Y-130947342D02*
X146381905Y-131042580D01*
X146381905Y-131042580D02*
X146429524Y-131090200D01*
X146429524Y-131090200D02*
X146524762Y-131137819D01*
X146524762Y-131137819D02*
X146715238Y-131137819D01*
X146715238Y-131137819D02*
X146810476Y-131090200D01*
X146810476Y-131090200D02*
X146858095Y-131042580D01*
X146858095Y-131042580D02*
X146905714Y-130947342D01*
X146905714Y-130947342D02*
X146905714Y-130756866D01*
X146905714Y-130756866D02*
X146858095Y-130661628D01*
X146858095Y-130661628D02*
X146810476Y-130614009D01*
X146810476Y-130614009D02*
X146715238Y-130566390D01*
D11*
X111100000Y-89000000D02*
X111100000Y-131000000D01*
X111100000Y-89000000D02*
X116900000Y-89000000D01*
X111100000Y-131000000D02*
X116900000Y-131000000D01*
X116900000Y-89000000D02*
X116900000Y-131000000D01*
X122195000Y-98427000D02*
X122195000Y-100612000D01*
X122195000Y-106297000D02*
X122195000Y-104112000D01*
X129260000Y-98427000D02*
X122195000Y-98427000D01*
X129260000Y-98427000D02*
X129260000Y-100612000D01*
X129260000Y-106297000D02*
X122195000Y-106297000D01*
X129260000Y-106297000D02*
X129260000Y-104112000D01*
X148740000Y-98427000D02*
X148740000Y-100612000D01*
X148740000Y-99187000D02*
X129260000Y-99187000D01*
X148740000Y-105537000D02*
X129260000Y-105537000D01*
X148740000Y-106297000D02*
X148740000Y-104112000D01*
X148740000Y-106297000D02*
X155850000Y-106297000D01*
X155850000Y-98427000D02*
X148740000Y-98427000D01*
X155850000Y-100612000D02*
X155850000Y-98427000D01*
X155850000Y-104112000D02*
X155850000Y-106297000D01*
%LPC*%
D12*
X144080000Y-134341000D02*
X144080000Y-132690000D01*
X146620000Y-134341000D02*
X146620000Y-132690000D01*
X131380000Y-134341000D02*
X131380000Y-132690000D01*
X136460000Y-134341000D02*
X136460000Y-132690000D01*
X141540000Y-134341000D02*
X141540000Y-132690000D01*
X139000000Y-134341000D02*
X139000000Y-132690000D01*
X128840000Y-134341000D02*
X128840000Y-132690000D01*
X133920000Y-134341000D02*
X133920000Y-132690000D01*
D13*
X109855000Y-87910000D03*
X168275000Y-132080000D03*
X158275000Y-87910000D03*
X158275000Y-132080000D03*
X119855000Y-132080000D03*
X119855000Y-87910000D03*
X109855000Y-132080000D03*
D14*
X114000000Y-127955000D03*
D13*
X114000000Y-122825000D03*
X114000000Y-117695000D03*
X114000000Y-112565000D03*
X114000000Y-107435000D03*
X114000000Y-102305000D03*
X114000000Y-97175000D03*
X114000000Y-92045000D03*
D15*
X121895000Y-102362000D03*
X129515000Y-102362000D03*
D16*
X148485000Y-102362000D03*
X156105000Y-102362000D03*
D13*
X168275000Y-87910000D03*
D17*
X128840000Y-132690000D03*
D18*
X131380000Y-132690000D03*
X133920000Y-132690000D03*
X136460000Y-132690000D03*
X139000000Y-132690000D03*
X141540000Y-132690000D03*
X144080000Y-132690000D03*
X146620000Y-132690000D03*
D14*
X164000000Y-127955000D03*
D13*
X164000000Y-122825000D03*
X164000000Y-117695000D03*
X164000000Y-112565000D03*
X164000000Y-107435000D03*
X164000000Y-102305000D03*
X164000000Y-97175000D03*
X164000000Y-92045000D03*
%LPD*%
M02*
