%TF.GenerationSoftware,KiCad,Pcbnew,8.0.2*%
%TF.CreationDate,2024-05-30T20:37:47+12:00*%
%TF.ProjectId,PDP-FUSE,5044502d-4655-4534-952e-6b696361645f,rev?*%
%TF.SameCoordinates,Original*%
%TF.FileFunction,Drillmap*%
%TF.FilePolarity,Positive*%
%FSLAX45Y45*%
G04 Gerber Fmt 4.5, Leading zero omitted, Abs format (unit mm)*
G04 Created by KiCad (PCBNEW 8.0.2) date 2024-05-30 20:37:47*
%MOMM*%
%LPD*%
G01*
G04 APERTURE LIST*
%ADD10C,0.100000*%
%ADD11C,0.200000*%
%ADD12C,0.320000*%
G04 APERTURE END LIST*
D10*
X17150000Y-8400000D02*
G75*
G02*
X17200000Y-8450000I0J-50000D01*
G01*
X17200000Y-8450000D02*
X17200000Y-13550000D01*
X10650000Y-13600000D02*
G75*
G02*
X10600000Y-13550000I0J50000D01*
G01*
X17200000Y-13550000D02*
G75*
G02*
X17150000Y-13600000I-50000J0D01*
G01*
X10600000Y-13550000D02*
X10600000Y-8450000D01*
X10600000Y-8450000D02*
G75*
G02*
X10650000Y-8400000I50000J0D01*
G01*
X10650000Y-8400000D02*
X17150000Y-8400000D01*
X17150000Y-13600000D02*
X10650000Y-13600000D01*
D11*
D12*
X10825500Y-8631000D02*
X11145500Y-8951000D01*
X11145500Y-8631000D02*
X10825500Y-8951000D01*
X10825500Y-13048000D02*
X11145500Y-13368000D01*
X11145500Y-13048000D02*
X10825500Y-13368000D01*
X11825500Y-8631000D02*
X12145500Y-8951000D01*
X12145500Y-8631000D02*
X11825500Y-8951000D01*
X11825500Y-13048000D02*
X12145500Y-13368000D01*
X12145500Y-13048000D02*
X11825500Y-13368000D01*
X15667500Y-8631000D02*
X15987500Y-8951000D01*
X15987500Y-8631000D02*
X15667500Y-8951000D01*
X15667500Y-13048000D02*
X15987500Y-13368000D01*
X15987500Y-13048000D02*
X15667500Y-13368000D01*
X16667500Y-8631000D02*
X16987500Y-8951000D01*
X16987500Y-8631000D02*
X16667500Y-8951000D01*
X16667500Y-13048000D02*
X16987500Y-13368000D01*
X16987500Y-13048000D02*
X16667500Y-13368000D01*
D11*
X10855777Y-13916484D02*
X10855777Y-13716484D01*
X10855777Y-13716484D02*
X10903396Y-13716484D01*
X10903396Y-13716484D02*
X10931967Y-13726008D01*
X10931967Y-13726008D02*
X10951015Y-13745055D01*
X10951015Y-13745055D02*
X10960539Y-13764103D01*
X10960539Y-13764103D02*
X10970063Y-13802198D01*
X10970063Y-13802198D02*
X10970063Y-13830769D01*
X10970063Y-13830769D02*
X10960539Y-13868865D01*
X10960539Y-13868865D02*
X10951015Y-13887912D01*
X10951015Y-13887912D02*
X10931967Y-13906960D01*
X10931967Y-13906960D02*
X10903396Y-13916484D01*
X10903396Y-13916484D02*
X10855777Y-13916484D01*
X11055777Y-13916484D02*
X11055777Y-13783150D01*
X11055777Y-13821246D02*
X11065301Y-13802198D01*
X11065301Y-13802198D02*
X11074824Y-13792674D01*
X11074824Y-13792674D02*
X11093872Y-13783150D01*
X11093872Y-13783150D02*
X11112920Y-13783150D01*
X11179586Y-13916484D02*
X11179586Y-13783150D01*
X11179586Y-13716484D02*
X11170063Y-13726008D01*
X11170063Y-13726008D02*
X11179586Y-13735531D01*
X11179586Y-13735531D02*
X11189110Y-13726008D01*
X11189110Y-13726008D02*
X11179586Y-13716484D01*
X11179586Y-13716484D02*
X11179586Y-13735531D01*
X11303396Y-13916484D02*
X11284348Y-13906960D01*
X11284348Y-13906960D02*
X11274824Y-13887912D01*
X11274824Y-13887912D02*
X11274824Y-13716484D01*
X11408158Y-13916484D02*
X11389110Y-13906960D01*
X11389110Y-13906960D02*
X11379586Y-13887912D01*
X11379586Y-13887912D02*
X11379586Y-13716484D01*
X11636729Y-13916484D02*
X11636729Y-13716484D01*
X11636729Y-13716484D02*
X11703396Y-13859341D01*
X11703396Y-13859341D02*
X11770062Y-13716484D01*
X11770062Y-13716484D02*
X11770062Y-13916484D01*
X11951015Y-13916484D02*
X11951015Y-13811722D01*
X11951015Y-13811722D02*
X11941491Y-13792674D01*
X11941491Y-13792674D02*
X11922443Y-13783150D01*
X11922443Y-13783150D02*
X11884348Y-13783150D01*
X11884348Y-13783150D02*
X11865301Y-13792674D01*
X11951015Y-13906960D02*
X11931967Y-13916484D01*
X11931967Y-13916484D02*
X11884348Y-13916484D01*
X11884348Y-13916484D02*
X11865301Y-13906960D01*
X11865301Y-13906960D02*
X11855777Y-13887912D01*
X11855777Y-13887912D02*
X11855777Y-13868865D01*
X11855777Y-13868865D02*
X11865301Y-13849817D01*
X11865301Y-13849817D02*
X11884348Y-13840293D01*
X11884348Y-13840293D02*
X11931967Y-13840293D01*
X11931967Y-13840293D02*
X11951015Y-13830769D01*
X12046253Y-13783150D02*
X12046253Y-13983150D01*
X12046253Y-13792674D02*
X12065301Y-13783150D01*
X12065301Y-13783150D02*
X12103396Y-13783150D01*
X12103396Y-13783150D02*
X12122443Y-13792674D01*
X12122443Y-13792674D02*
X12131967Y-13802198D01*
X12131967Y-13802198D02*
X12141491Y-13821246D01*
X12141491Y-13821246D02*
X12141491Y-13878388D01*
X12141491Y-13878388D02*
X12131967Y-13897436D01*
X12131967Y-13897436D02*
X12122443Y-13906960D01*
X12122443Y-13906960D02*
X12103396Y-13916484D01*
X12103396Y-13916484D02*
X12065301Y-13916484D01*
X12065301Y-13916484D02*
X12046253Y-13906960D01*
X12227205Y-13897436D02*
X12236729Y-13906960D01*
X12236729Y-13906960D02*
X12227205Y-13916484D01*
X12227205Y-13916484D02*
X12217682Y-13906960D01*
X12217682Y-13906960D02*
X12227205Y-13897436D01*
X12227205Y-13897436D02*
X12227205Y-13916484D01*
X12227205Y-13792674D02*
X12236729Y-13802198D01*
X12236729Y-13802198D02*
X12227205Y-13811722D01*
X12227205Y-13811722D02*
X12217682Y-13802198D01*
X12217682Y-13802198D02*
X12227205Y-13792674D01*
X12227205Y-13792674D02*
X12227205Y-13811722D01*
X10395000Y-14145000D02*
X10595000Y-14345000D01*
X10595000Y-14145000D02*
X10395000Y-14345000D01*
X10836729Y-14136484D02*
X10960539Y-14136484D01*
X10960539Y-14136484D02*
X10893872Y-14212674D01*
X10893872Y-14212674D02*
X10922444Y-14212674D01*
X10922444Y-14212674D02*
X10941491Y-14222198D01*
X10941491Y-14222198D02*
X10951015Y-14231722D01*
X10951015Y-14231722D02*
X10960539Y-14250769D01*
X10960539Y-14250769D02*
X10960539Y-14298388D01*
X10960539Y-14298388D02*
X10951015Y-14317436D01*
X10951015Y-14317436D02*
X10941491Y-14326960D01*
X10941491Y-14326960D02*
X10922444Y-14336484D01*
X10922444Y-14336484D02*
X10865301Y-14336484D01*
X10865301Y-14336484D02*
X10846253Y-14326960D01*
X10846253Y-14326960D02*
X10836729Y-14317436D01*
X11046253Y-14317436D02*
X11055777Y-14326960D01*
X11055777Y-14326960D02*
X11046253Y-14336484D01*
X11046253Y-14336484D02*
X11036729Y-14326960D01*
X11036729Y-14326960D02*
X11046253Y-14317436D01*
X11046253Y-14317436D02*
X11046253Y-14336484D01*
X11131967Y-14155531D02*
X11141491Y-14146008D01*
X11141491Y-14146008D02*
X11160539Y-14136484D01*
X11160539Y-14136484D02*
X11208158Y-14136484D01*
X11208158Y-14136484D02*
X11227205Y-14146008D01*
X11227205Y-14146008D02*
X11236729Y-14155531D01*
X11236729Y-14155531D02*
X11246253Y-14174579D01*
X11246253Y-14174579D02*
X11246253Y-14193627D01*
X11246253Y-14193627D02*
X11236729Y-14222198D01*
X11236729Y-14222198D02*
X11122444Y-14336484D01*
X11122444Y-14336484D02*
X11246253Y-14336484D01*
X11370062Y-14136484D02*
X11389110Y-14136484D01*
X11389110Y-14136484D02*
X11408158Y-14146008D01*
X11408158Y-14146008D02*
X11417682Y-14155531D01*
X11417682Y-14155531D02*
X11427205Y-14174579D01*
X11427205Y-14174579D02*
X11436729Y-14212674D01*
X11436729Y-14212674D02*
X11436729Y-14260293D01*
X11436729Y-14260293D02*
X11427205Y-14298388D01*
X11427205Y-14298388D02*
X11417682Y-14317436D01*
X11417682Y-14317436D02*
X11408158Y-14326960D01*
X11408158Y-14326960D02*
X11389110Y-14336484D01*
X11389110Y-14336484D02*
X11370062Y-14336484D01*
X11370062Y-14336484D02*
X11351015Y-14326960D01*
X11351015Y-14326960D02*
X11341491Y-14317436D01*
X11341491Y-14317436D02*
X11331967Y-14298388D01*
X11331967Y-14298388D02*
X11322443Y-14260293D01*
X11322443Y-14260293D02*
X11322443Y-14212674D01*
X11322443Y-14212674D02*
X11331967Y-14174579D01*
X11331967Y-14174579D02*
X11341491Y-14155531D01*
X11341491Y-14155531D02*
X11351015Y-14146008D01*
X11351015Y-14146008D02*
X11370062Y-14136484D01*
X11560539Y-14136484D02*
X11579586Y-14136484D01*
X11579586Y-14136484D02*
X11598634Y-14146008D01*
X11598634Y-14146008D02*
X11608158Y-14155531D01*
X11608158Y-14155531D02*
X11617682Y-14174579D01*
X11617682Y-14174579D02*
X11627205Y-14212674D01*
X11627205Y-14212674D02*
X11627205Y-14260293D01*
X11627205Y-14260293D02*
X11617682Y-14298388D01*
X11617682Y-14298388D02*
X11608158Y-14317436D01*
X11608158Y-14317436D02*
X11598634Y-14326960D01*
X11598634Y-14326960D02*
X11579586Y-14336484D01*
X11579586Y-14336484D02*
X11560539Y-14336484D01*
X11560539Y-14336484D02*
X11541491Y-14326960D01*
X11541491Y-14326960D02*
X11531967Y-14317436D01*
X11531967Y-14317436D02*
X11522443Y-14298388D01*
X11522443Y-14298388D02*
X11512920Y-14260293D01*
X11512920Y-14260293D02*
X11512920Y-14212674D01*
X11512920Y-14212674D02*
X11522443Y-14174579D01*
X11522443Y-14174579D02*
X11531967Y-14155531D01*
X11531967Y-14155531D02*
X11541491Y-14146008D01*
X11541491Y-14146008D02*
X11560539Y-14136484D01*
X11712920Y-14336484D02*
X11712920Y-14203150D01*
X11712920Y-14222198D02*
X11722443Y-14212674D01*
X11722443Y-14212674D02*
X11741491Y-14203150D01*
X11741491Y-14203150D02*
X11770063Y-14203150D01*
X11770063Y-14203150D02*
X11789110Y-14212674D01*
X11789110Y-14212674D02*
X11798634Y-14231722D01*
X11798634Y-14231722D02*
X11798634Y-14336484D01*
X11798634Y-14231722D02*
X11808158Y-14212674D01*
X11808158Y-14212674D02*
X11827205Y-14203150D01*
X11827205Y-14203150D02*
X11855777Y-14203150D01*
X11855777Y-14203150D02*
X11874824Y-14212674D01*
X11874824Y-14212674D02*
X11884348Y-14231722D01*
X11884348Y-14231722D02*
X11884348Y-14336484D01*
X11979586Y-14336484D02*
X11979586Y-14203150D01*
X11979586Y-14222198D02*
X11989110Y-14212674D01*
X11989110Y-14212674D02*
X12008158Y-14203150D01*
X12008158Y-14203150D02*
X12036729Y-14203150D01*
X12036729Y-14203150D02*
X12055777Y-14212674D01*
X12055777Y-14212674D02*
X12065301Y-14231722D01*
X12065301Y-14231722D02*
X12065301Y-14336484D01*
X12065301Y-14231722D02*
X12074824Y-14212674D01*
X12074824Y-14212674D02*
X12093872Y-14203150D01*
X12093872Y-14203150D02*
X12122443Y-14203150D01*
X12122443Y-14203150D02*
X12141491Y-14212674D01*
X12141491Y-14212674D02*
X12151015Y-14231722D01*
X12151015Y-14231722D02*
X12151015Y-14336484D01*
X12541491Y-14126960D02*
X12370063Y-14384103D01*
X12798634Y-14136484D02*
X12817682Y-14136484D01*
X12817682Y-14136484D02*
X12836729Y-14146008D01*
X12836729Y-14146008D02*
X12846253Y-14155531D01*
X12846253Y-14155531D02*
X12855777Y-14174579D01*
X12855777Y-14174579D02*
X12865301Y-14212674D01*
X12865301Y-14212674D02*
X12865301Y-14260293D01*
X12865301Y-14260293D02*
X12855777Y-14298388D01*
X12855777Y-14298388D02*
X12846253Y-14317436D01*
X12846253Y-14317436D02*
X12836729Y-14326960D01*
X12836729Y-14326960D02*
X12817682Y-14336484D01*
X12817682Y-14336484D02*
X12798634Y-14336484D01*
X12798634Y-14336484D02*
X12779586Y-14326960D01*
X12779586Y-14326960D02*
X12770063Y-14317436D01*
X12770063Y-14317436D02*
X12760539Y-14298388D01*
X12760539Y-14298388D02*
X12751015Y-14260293D01*
X12751015Y-14260293D02*
X12751015Y-14212674D01*
X12751015Y-14212674D02*
X12760539Y-14174579D01*
X12760539Y-14174579D02*
X12770063Y-14155531D01*
X12770063Y-14155531D02*
X12779586Y-14146008D01*
X12779586Y-14146008D02*
X12798634Y-14136484D01*
X12951015Y-14317436D02*
X12960539Y-14326960D01*
X12960539Y-14326960D02*
X12951015Y-14336484D01*
X12951015Y-14336484D02*
X12941491Y-14326960D01*
X12941491Y-14326960D02*
X12951015Y-14317436D01*
X12951015Y-14317436D02*
X12951015Y-14336484D01*
X13151015Y-14336484D02*
X13036729Y-14336484D01*
X13093872Y-14336484D02*
X13093872Y-14136484D01*
X13093872Y-14136484D02*
X13074825Y-14165055D01*
X13074825Y-14165055D02*
X13055777Y-14184103D01*
X13055777Y-14184103D02*
X13036729Y-14193627D01*
X13227206Y-14155531D02*
X13236729Y-14146008D01*
X13236729Y-14146008D02*
X13255777Y-14136484D01*
X13255777Y-14136484D02*
X13303396Y-14136484D01*
X13303396Y-14136484D02*
X13322444Y-14146008D01*
X13322444Y-14146008D02*
X13331967Y-14155531D01*
X13331967Y-14155531D02*
X13341491Y-14174579D01*
X13341491Y-14174579D02*
X13341491Y-14193627D01*
X13341491Y-14193627D02*
X13331967Y-14222198D01*
X13331967Y-14222198D02*
X13217682Y-14336484D01*
X13217682Y-14336484D02*
X13341491Y-14336484D01*
X13512920Y-14136484D02*
X13474825Y-14136484D01*
X13474825Y-14136484D02*
X13455777Y-14146008D01*
X13455777Y-14146008D02*
X13446253Y-14155531D01*
X13446253Y-14155531D02*
X13427206Y-14184103D01*
X13427206Y-14184103D02*
X13417682Y-14222198D01*
X13417682Y-14222198D02*
X13417682Y-14298388D01*
X13417682Y-14298388D02*
X13427206Y-14317436D01*
X13427206Y-14317436D02*
X13436729Y-14326960D01*
X13436729Y-14326960D02*
X13455777Y-14336484D01*
X13455777Y-14336484D02*
X13493872Y-14336484D01*
X13493872Y-14336484D02*
X13512920Y-14326960D01*
X13512920Y-14326960D02*
X13522444Y-14317436D01*
X13522444Y-14317436D02*
X13531967Y-14298388D01*
X13531967Y-14298388D02*
X13531967Y-14250769D01*
X13531967Y-14250769D02*
X13522444Y-14231722D01*
X13522444Y-14231722D02*
X13512920Y-14222198D01*
X13512920Y-14222198D02*
X13493872Y-14212674D01*
X13493872Y-14212674D02*
X13455777Y-14212674D01*
X13455777Y-14212674D02*
X13436729Y-14222198D01*
X13436729Y-14222198D02*
X13427206Y-14231722D01*
X13427206Y-14231722D02*
X13417682Y-14250769D01*
X13655777Y-14136484D02*
X13674825Y-14136484D01*
X13674825Y-14136484D02*
X13693872Y-14146008D01*
X13693872Y-14146008D02*
X13703396Y-14155531D01*
X13703396Y-14155531D02*
X13712920Y-14174579D01*
X13712920Y-14174579D02*
X13722444Y-14212674D01*
X13722444Y-14212674D02*
X13722444Y-14260293D01*
X13722444Y-14260293D02*
X13712920Y-14298388D01*
X13712920Y-14298388D02*
X13703396Y-14317436D01*
X13703396Y-14317436D02*
X13693872Y-14326960D01*
X13693872Y-14326960D02*
X13674825Y-14336484D01*
X13674825Y-14336484D02*
X13655777Y-14336484D01*
X13655777Y-14336484D02*
X13636729Y-14326960D01*
X13636729Y-14326960D02*
X13627206Y-14317436D01*
X13627206Y-14317436D02*
X13617682Y-14298388D01*
X13617682Y-14298388D02*
X13608158Y-14260293D01*
X13608158Y-14260293D02*
X13608158Y-14212674D01*
X13608158Y-14212674D02*
X13617682Y-14174579D01*
X13617682Y-14174579D02*
X13627206Y-14155531D01*
X13627206Y-14155531D02*
X13636729Y-14146008D01*
X13636729Y-14146008D02*
X13655777Y-14136484D01*
X13798634Y-14136484D02*
X13798634Y-14174579D01*
X13874825Y-14136484D02*
X13874825Y-14174579D01*
X14170063Y-14412674D02*
X14160539Y-14403150D01*
X14160539Y-14403150D02*
X14141491Y-14374579D01*
X14141491Y-14374579D02*
X14131968Y-14355531D01*
X14131968Y-14355531D02*
X14122444Y-14326960D01*
X14122444Y-14326960D02*
X14112920Y-14279341D01*
X14112920Y-14279341D02*
X14112920Y-14241246D01*
X14112920Y-14241246D02*
X14122444Y-14193627D01*
X14122444Y-14193627D02*
X14131968Y-14165055D01*
X14131968Y-14165055D02*
X14141491Y-14146008D01*
X14141491Y-14146008D02*
X14160539Y-14117436D01*
X14160539Y-14117436D02*
X14170063Y-14107912D01*
X14274825Y-14222198D02*
X14255777Y-14212674D01*
X14255777Y-14212674D02*
X14246253Y-14203150D01*
X14246253Y-14203150D02*
X14236729Y-14184103D01*
X14236729Y-14184103D02*
X14236729Y-14174579D01*
X14236729Y-14174579D02*
X14246253Y-14155531D01*
X14246253Y-14155531D02*
X14255777Y-14146008D01*
X14255777Y-14146008D02*
X14274825Y-14136484D01*
X14274825Y-14136484D02*
X14312920Y-14136484D01*
X14312920Y-14136484D02*
X14331968Y-14146008D01*
X14331968Y-14146008D02*
X14341491Y-14155531D01*
X14341491Y-14155531D02*
X14351015Y-14174579D01*
X14351015Y-14174579D02*
X14351015Y-14184103D01*
X14351015Y-14184103D02*
X14341491Y-14203150D01*
X14341491Y-14203150D02*
X14331968Y-14212674D01*
X14331968Y-14212674D02*
X14312920Y-14222198D01*
X14312920Y-14222198D02*
X14274825Y-14222198D01*
X14274825Y-14222198D02*
X14255777Y-14231722D01*
X14255777Y-14231722D02*
X14246253Y-14241246D01*
X14246253Y-14241246D02*
X14236729Y-14260293D01*
X14236729Y-14260293D02*
X14236729Y-14298388D01*
X14236729Y-14298388D02*
X14246253Y-14317436D01*
X14246253Y-14317436D02*
X14255777Y-14326960D01*
X14255777Y-14326960D02*
X14274825Y-14336484D01*
X14274825Y-14336484D02*
X14312920Y-14336484D01*
X14312920Y-14336484D02*
X14331968Y-14326960D01*
X14331968Y-14326960D02*
X14341491Y-14317436D01*
X14341491Y-14317436D02*
X14351015Y-14298388D01*
X14351015Y-14298388D02*
X14351015Y-14260293D01*
X14351015Y-14260293D02*
X14341491Y-14241246D01*
X14341491Y-14241246D02*
X14331968Y-14231722D01*
X14331968Y-14231722D02*
X14312920Y-14222198D01*
X14589110Y-14336484D02*
X14589110Y-14136484D01*
X14674825Y-14336484D02*
X14674825Y-14231722D01*
X14674825Y-14231722D02*
X14665301Y-14212674D01*
X14665301Y-14212674D02*
X14646253Y-14203150D01*
X14646253Y-14203150D02*
X14617682Y-14203150D01*
X14617682Y-14203150D02*
X14598634Y-14212674D01*
X14598634Y-14212674D02*
X14589110Y-14222198D01*
X14798634Y-14336484D02*
X14779587Y-14326960D01*
X14779587Y-14326960D02*
X14770063Y-14317436D01*
X14770063Y-14317436D02*
X14760539Y-14298388D01*
X14760539Y-14298388D02*
X14760539Y-14241246D01*
X14760539Y-14241246D02*
X14770063Y-14222198D01*
X14770063Y-14222198D02*
X14779587Y-14212674D01*
X14779587Y-14212674D02*
X14798634Y-14203150D01*
X14798634Y-14203150D02*
X14827206Y-14203150D01*
X14827206Y-14203150D02*
X14846253Y-14212674D01*
X14846253Y-14212674D02*
X14855777Y-14222198D01*
X14855777Y-14222198D02*
X14865301Y-14241246D01*
X14865301Y-14241246D02*
X14865301Y-14298388D01*
X14865301Y-14298388D02*
X14855777Y-14317436D01*
X14855777Y-14317436D02*
X14846253Y-14326960D01*
X14846253Y-14326960D02*
X14827206Y-14336484D01*
X14827206Y-14336484D02*
X14798634Y-14336484D01*
X14979587Y-14336484D02*
X14960539Y-14326960D01*
X14960539Y-14326960D02*
X14951015Y-14307912D01*
X14951015Y-14307912D02*
X14951015Y-14136484D01*
X15131968Y-14326960D02*
X15112920Y-14336484D01*
X15112920Y-14336484D02*
X15074825Y-14336484D01*
X15074825Y-14336484D02*
X15055777Y-14326960D01*
X15055777Y-14326960D02*
X15046253Y-14307912D01*
X15046253Y-14307912D02*
X15046253Y-14231722D01*
X15046253Y-14231722D02*
X15055777Y-14212674D01*
X15055777Y-14212674D02*
X15074825Y-14203150D01*
X15074825Y-14203150D02*
X15112920Y-14203150D01*
X15112920Y-14203150D02*
X15131968Y-14212674D01*
X15131968Y-14212674D02*
X15141491Y-14231722D01*
X15141491Y-14231722D02*
X15141491Y-14250769D01*
X15141491Y-14250769D02*
X15046253Y-14269817D01*
X15217682Y-14326960D02*
X15236730Y-14336484D01*
X15236730Y-14336484D02*
X15274825Y-14336484D01*
X15274825Y-14336484D02*
X15293872Y-14326960D01*
X15293872Y-14326960D02*
X15303396Y-14307912D01*
X15303396Y-14307912D02*
X15303396Y-14298388D01*
X15303396Y-14298388D02*
X15293872Y-14279341D01*
X15293872Y-14279341D02*
X15274825Y-14269817D01*
X15274825Y-14269817D02*
X15246253Y-14269817D01*
X15246253Y-14269817D02*
X15227206Y-14260293D01*
X15227206Y-14260293D02*
X15217682Y-14241246D01*
X15217682Y-14241246D02*
X15217682Y-14231722D01*
X15217682Y-14231722D02*
X15227206Y-14212674D01*
X15227206Y-14212674D02*
X15246253Y-14203150D01*
X15246253Y-14203150D02*
X15274825Y-14203150D01*
X15274825Y-14203150D02*
X15293872Y-14212674D01*
X15370063Y-14412674D02*
X15379587Y-14403150D01*
X15379587Y-14403150D02*
X15398634Y-14374579D01*
X15398634Y-14374579D02*
X15408158Y-14355531D01*
X15408158Y-14355531D02*
X15417682Y-14326960D01*
X15417682Y-14326960D02*
X15427206Y-14279341D01*
X15427206Y-14279341D02*
X15427206Y-14241246D01*
X15427206Y-14241246D02*
X15417682Y-14193627D01*
X15417682Y-14193627D02*
X15408158Y-14165055D01*
X15408158Y-14165055D02*
X15398634Y-14146008D01*
X15398634Y-14146008D02*
X15379587Y-14117436D01*
X15379587Y-14117436D02*
X15370063Y-14107912D01*
X15731968Y-14412674D02*
X15722444Y-14403150D01*
X15722444Y-14403150D02*
X15703396Y-14374579D01*
X15703396Y-14374579D02*
X15693872Y-14355531D01*
X15693872Y-14355531D02*
X15684349Y-14326960D01*
X15684349Y-14326960D02*
X15674825Y-14279341D01*
X15674825Y-14279341D02*
X15674825Y-14241246D01*
X15674825Y-14241246D02*
X15684349Y-14193627D01*
X15684349Y-14193627D02*
X15693872Y-14165055D01*
X15693872Y-14165055D02*
X15703396Y-14146008D01*
X15703396Y-14146008D02*
X15722444Y-14117436D01*
X15722444Y-14117436D02*
X15731968Y-14107912D01*
X15808158Y-14203150D02*
X15808158Y-14336484D01*
X15808158Y-14222198D02*
X15817682Y-14212674D01*
X15817682Y-14212674D02*
X15836730Y-14203150D01*
X15836730Y-14203150D02*
X15865301Y-14203150D01*
X15865301Y-14203150D02*
X15884349Y-14212674D01*
X15884349Y-14212674D02*
X15893872Y-14231722D01*
X15893872Y-14231722D02*
X15893872Y-14336484D01*
X16017682Y-14336484D02*
X15998634Y-14326960D01*
X15998634Y-14326960D02*
X15989111Y-14317436D01*
X15989111Y-14317436D02*
X15979587Y-14298388D01*
X15979587Y-14298388D02*
X15979587Y-14241246D01*
X15979587Y-14241246D02*
X15989111Y-14222198D01*
X15989111Y-14222198D02*
X15998634Y-14212674D01*
X15998634Y-14212674D02*
X16017682Y-14203150D01*
X16017682Y-14203150D02*
X16046253Y-14203150D01*
X16046253Y-14203150D02*
X16065301Y-14212674D01*
X16065301Y-14212674D02*
X16074825Y-14222198D01*
X16074825Y-14222198D02*
X16084349Y-14241246D01*
X16084349Y-14241246D02*
X16084349Y-14298388D01*
X16084349Y-14298388D02*
X16074825Y-14317436D01*
X16074825Y-14317436D02*
X16065301Y-14326960D01*
X16065301Y-14326960D02*
X16046253Y-14336484D01*
X16046253Y-14336484D02*
X16017682Y-14336484D01*
X16141492Y-14203150D02*
X16217682Y-14203150D01*
X16170063Y-14136484D02*
X16170063Y-14307912D01*
X16170063Y-14307912D02*
X16179587Y-14326960D01*
X16179587Y-14326960D02*
X16198634Y-14336484D01*
X16198634Y-14336484D02*
X16217682Y-14336484D01*
X16436730Y-14203150D02*
X16436730Y-14403150D01*
X16436730Y-14212674D02*
X16455777Y-14203150D01*
X16455777Y-14203150D02*
X16493873Y-14203150D01*
X16493873Y-14203150D02*
X16512920Y-14212674D01*
X16512920Y-14212674D02*
X16522444Y-14222198D01*
X16522444Y-14222198D02*
X16531968Y-14241246D01*
X16531968Y-14241246D02*
X16531968Y-14298388D01*
X16531968Y-14298388D02*
X16522444Y-14317436D01*
X16522444Y-14317436D02*
X16512920Y-14326960D01*
X16512920Y-14326960D02*
X16493873Y-14336484D01*
X16493873Y-14336484D02*
X16455777Y-14336484D01*
X16455777Y-14336484D02*
X16436730Y-14326960D01*
X16646253Y-14336484D02*
X16627206Y-14326960D01*
X16627206Y-14326960D02*
X16617682Y-14307912D01*
X16617682Y-14307912D02*
X16617682Y-14136484D01*
X16808158Y-14336484D02*
X16808158Y-14231722D01*
X16808158Y-14231722D02*
X16798635Y-14212674D01*
X16798635Y-14212674D02*
X16779587Y-14203150D01*
X16779587Y-14203150D02*
X16741492Y-14203150D01*
X16741492Y-14203150D02*
X16722444Y-14212674D01*
X16808158Y-14326960D02*
X16789111Y-14336484D01*
X16789111Y-14336484D02*
X16741492Y-14336484D01*
X16741492Y-14336484D02*
X16722444Y-14326960D01*
X16722444Y-14326960D02*
X16712920Y-14307912D01*
X16712920Y-14307912D02*
X16712920Y-14288865D01*
X16712920Y-14288865D02*
X16722444Y-14269817D01*
X16722444Y-14269817D02*
X16741492Y-14260293D01*
X16741492Y-14260293D02*
X16789111Y-14260293D01*
X16789111Y-14260293D02*
X16808158Y-14250769D01*
X16874825Y-14203150D02*
X16951015Y-14203150D01*
X16903396Y-14136484D02*
X16903396Y-14307912D01*
X16903396Y-14307912D02*
X16912920Y-14326960D01*
X16912920Y-14326960D02*
X16931968Y-14336484D01*
X16931968Y-14336484D02*
X16951015Y-14336484D01*
X17093873Y-14326960D02*
X17074825Y-14336484D01*
X17074825Y-14336484D02*
X17036730Y-14336484D01*
X17036730Y-14336484D02*
X17017682Y-14326960D01*
X17017682Y-14326960D02*
X17008158Y-14307912D01*
X17008158Y-14307912D02*
X17008158Y-14231722D01*
X17008158Y-14231722D02*
X17017682Y-14212674D01*
X17017682Y-14212674D02*
X17036730Y-14203150D01*
X17036730Y-14203150D02*
X17074825Y-14203150D01*
X17074825Y-14203150D02*
X17093873Y-14212674D01*
X17093873Y-14212674D02*
X17103396Y-14231722D01*
X17103396Y-14231722D02*
X17103396Y-14250769D01*
X17103396Y-14250769D02*
X17008158Y-14269817D01*
X17274825Y-14336484D02*
X17274825Y-14136484D01*
X17274825Y-14326960D02*
X17255777Y-14336484D01*
X17255777Y-14336484D02*
X17217682Y-14336484D01*
X17217682Y-14336484D02*
X17198635Y-14326960D01*
X17198635Y-14326960D02*
X17189111Y-14317436D01*
X17189111Y-14317436D02*
X17179587Y-14298388D01*
X17179587Y-14298388D02*
X17179587Y-14241246D01*
X17179587Y-14241246D02*
X17189111Y-14222198D01*
X17189111Y-14222198D02*
X17198635Y-14212674D01*
X17198635Y-14212674D02*
X17217682Y-14203150D01*
X17217682Y-14203150D02*
X17255777Y-14203150D01*
X17255777Y-14203150D02*
X17274825Y-14212674D01*
X17351016Y-14412674D02*
X17360539Y-14403150D01*
X17360539Y-14403150D02*
X17379587Y-14374579D01*
X17379587Y-14374579D02*
X17389111Y-14355531D01*
X17389111Y-14355531D02*
X17398635Y-14326960D01*
X17398635Y-14326960D02*
X17408158Y-14279341D01*
X17408158Y-14279341D02*
X17408158Y-14241246D01*
X17408158Y-14241246D02*
X17398635Y-14193627D01*
X17398635Y-14193627D02*
X17389111Y-14165055D01*
X17389111Y-14165055D02*
X17379587Y-14146008D01*
X17379587Y-14146008D02*
X17360539Y-14117436D01*
X17360539Y-14117436D02*
X17351016Y-14107912D01*
M02*
