G04 #@! TF.GenerationSoftware,KiCad,Pcbnew,8.0.2*
G04 #@! TF.CreationDate,2024-05-30T20:37:43+12:00*
G04 #@! TF.ProjectId,PDP-FUSE,5044502d-4655-4534-952e-6b696361645f,rev?*
G04 #@! TF.SameCoordinates,Original*
G04 #@! TF.FileFunction,Legend,Bot*
G04 #@! TF.FilePolarity,Positive*
%FSLAX46Y46*%
G04 Gerber Fmt 4.6, Leading zero omitted, Abs format (unit mm)*
G04 Created by KiCad (PCBNEW 8.0.2) date 2024-05-30 20:37:43*
%MOMM*%
%LPD*%
G01*
G04 APERTURE LIST*
G04 Aperture macros list*
%AMRoundRect*
0 Rectangle with rounded corners*
0 $1 Rounding radius*
0 $2 $3 $4 $5 $6 $7 $8 $9 X,Y pos of 4 corners*
0 Add a 4 corners polygon primitive as box body*
4,1,4,$2,$3,$4,$5,$6,$7,$8,$9,$2,$3,0*
0 Add four circle primitives for the rounded corners*
1,1,$1+$1,$2,$3*
1,1,$1+$1,$4,$5*
1,1,$1+$1,$6,$7*
1,1,$1+$1,$8,$9*
0 Add four rect primitives between the rounded corners*
20,1,$1+$1,$2,$3,$4,$5,0*
20,1,$1+$1,$4,$5,$6,$7,0*
20,1,$1+$1,$6,$7,$8,$9,0*
20,1,$1+$1,$8,$9,$2,$3,0*%
G04 Aperture macros list end*
%ADD10C,0.150000*%
%ADD11C,0.120000*%
%ADD12C,3.200000*%
%ADD13RoundRect,0.800000X0.800000X-0.800000X0.800000X0.800000X-0.800000X0.800000X-0.800000X-0.800000X0*%
%ADD14RoundRect,0.750000X-0.750000X-0.750000X0.750000X-0.750000X0.750000X0.750000X-0.750000X0.750000X0*%
%ADD15C,3.000000*%
%ADD16R,1.700000X1.700000*%
%ADD17O,1.700000X1.700000*%
G04 APERTURE END LIST*
D10*
X144351332Y-130137819D02*
X143684666Y-130137819D01*
X143684666Y-130137819D02*
X144113237Y-131137819D01*
X138699904Y-130137819D02*
X139176094Y-130137819D01*
X139176094Y-130137819D02*
X139223713Y-130614009D01*
X139223713Y-130614009D02*
X139176094Y-130566390D01*
X139176094Y-130566390D02*
X139080856Y-130518771D01*
X139080856Y-130518771D02*
X138842761Y-130518771D01*
X138842761Y-130518771D02*
X138747523Y-130566390D01*
X138747523Y-130566390D02*
X138699904Y-130614009D01*
X138699904Y-130614009D02*
X138652285Y-130709247D01*
X138652285Y-130709247D02*
X138652285Y-130947342D01*
X138652285Y-130947342D02*
X138699904Y-131042580D01*
X138699904Y-131042580D02*
X138747523Y-131090200D01*
X138747523Y-131090200D02*
X138842761Y-131137819D01*
X138842761Y-131137819D02*
X139080856Y-131137819D01*
X139080856Y-131137819D02*
X139176094Y-131090200D01*
X139176094Y-131090200D02*
X139223713Y-131042580D01*
X146653237Y-130566390D02*
X146748475Y-130518771D01*
X146748475Y-130518771D02*
X146796094Y-130471152D01*
X146796094Y-130471152D02*
X146843713Y-130375914D01*
X146843713Y-130375914D02*
X146843713Y-130328295D01*
X146843713Y-130328295D02*
X146796094Y-130233057D01*
X146796094Y-130233057D02*
X146748475Y-130185438D01*
X146748475Y-130185438D02*
X146653237Y-130137819D01*
X146653237Y-130137819D02*
X146462761Y-130137819D01*
X146462761Y-130137819D02*
X146367523Y-130185438D01*
X146367523Y-130185438D02*
X146319904Y-130233057D01*
X146319904Y-130233057D02*
X146272285Y-130328295D01*
X146272285Y-130328295D02*
X146272285Y-130375914D01*
X146272285Y-130375914D02*
X146319904Y-130471152D01*
X146319904Y-130471152D02*
X146367523Y-130518771D01*
X146367523Y-130518771D02*
X146462761Y-130566390D01*
X146462761Y-130566390D02*
X146653237Y-130566390D01*
X146653237Y-130566390D02*
X146748475Y-130614009D01*
X146748475Y-130614009D02*
X146796094Y-130661628D01*
X146796094Y-130661628D02*
X146843713Y-130756866D01*
X146843713Y-130756866D02*
X146843713Y-130947342D01*
X146843713Y-130947342D02*
X146796094Y-131042580D01*
X146796094Y-131042580D02*
X146748475Y-131090200D01*
X146748475Y-131090200D02*
X146653237Y-131137819D01*
X146653237Y-131137819D02*
X146462761Y-131137819D01*
X146462761Y-131137819D02*
X146367523Y-131090200D01*
X146367523Y-131090200D02*
X146319904Y-131042580D01*
X146319904Y-131042580D02*
X146272285Y-130947342D01*
X146272285Y-130947342D02*
X146272285Y-130756866D01*
X146272285Y-130756866D02*
X146319904Y-130661628D01*
X146319904Y-130661628D02*
X146367523Y-130614009D01*
X146367523Y-130614009D02*
X146462761Y-130566390D01*
X141287523Y-130137819D02*
X141477999Y-130137819D01*
X141477999Y-130137819D02*
X141573237Y-130185438D01*
X141573237Y-130185438D02*
X141620856Y-130233057D01*
X141620856Y-130233057D02*
X141716094Y-130375914D01*
X141716094Y-130375914D02*
X141763713Y-130566390D01*
X141763713Y-130566390D02*
X141763713Y-130947342D01*
X141763713Y-130947342D02*
X141716094Y-131042580D01*
X141716094Y-131042580D02*
X141668475Y-131090200D01*
X141668475Y-131090200D02*
X141573237Y-131137819D01*
X141573237Y-131137819D02*
X141382761Y-131137819D01*
X141382761Y-131137819D02*
X141287523Y-131090200D01*
X141287523Y-131090200D02*
X141239904Y-131042580D01*
X141239904Y-131042580D02*
X141192285Y-130947342D01*
X141192285Y-130947342D02*
X141192285Y-130709247D01*
X141192285Y-130709247D02*
X141239904Y-130614009D01*
X141239904Y-130614009D02*
X141287523Y-130566390D01*
X141287523Y-130566390D02*
X141382761Y-130518771D01*
X141382761Y-130518771D02*
X141573237Y-130518771D01*
X141573237Y-130518771D02*
X141668475Y-130566390D01*
X141668475Y-130566390D02*
X141716094Y-130614009D01*
X141716094Y-130614009D02*
X141763713Y-130709247D01*
X131603713Y-130233057D02*
X131556094Y-130185438D01*
X131556094Y-130185438D02*
X131460856Y-130137819D01*
X131460856Y-130137819D02*
X131222761Y-130137819D01*
X131222761Y-130137819D02*
X131127523Y-130185438D01*
X131127523Y-130185438D02*
X131079904Y-130233057D01*
X131079904Y-130233057D02*
X131032285Y-130328295D01*
X131032285Y-130328295D02*
X131032285Y-130423533D01*
X131032285Y-130423533D02*
X131079904Y-130566390D01*
X131079904Y-130566390D02*
X131651332Y-131137819D01*
X131651332Y-131137819D02*
X131032285Y-131137819D01*
X136207523Y-130471152D02*
X136207523Y-131137819D01*
X136445618Y-130090200D02*
X136683713Y-130804485D01*
X136683713Y-130804485D02*
X136064666Y-130804485D01*
X128492285Y-131137819D02*
X129063713Y-131137819D01*
X128777999Y-131137819D02*
X128777999Y-130137819D01*
X128777999Y-130137819D02*
X128873237Y-130280676D01*
X128873237Y-130280676D02*
X128968475Y-130375914D01*
X128968475Y-130375914D02*
X129063713Y-130423533D01*
X150295143Y-87279847D02*
X150295143Y-86279847D01*
X150295143Y-86279847D02*
X149914191Y-86279847D01*
X149914191Y-86279847D02*
X149818953Y-86327466D01*
X149818953Y-86327466D02*
X149771334Y-86375085D01*
X149771334Y-86375085D02*
X149723715Y-86470323D01*
X149723715Y-86470323D02*
X149723715Y-86613180D01*
X149723715Y-86613180D02*
X149771334Y-86708418D01*
X149771334Y-86708418D02*
X149818953Y-86756037D01*
X149818953Y-86756037D02*
X149914191Y-86803656D01*
X149914191Y-86803656D02*
X150295143Y-86803656D01*
X149295143Y-87279847D02*
X149295143Y-86279847D01*
X149295143Y-86279847D02*
X149057048Y-86279847D01*
X149057048Y-86279847D02*
X148914191Y-86327466D01*
X148914191Y-86327466D02*
X148818953Y-86422704D01*
X148818953Y-86422704D02*
X148771334Y-86517942D01*
X148771334Y-86517942D02*
X148723715Y-86708418D01*
X148723715Y-86708418D02*
X148723715Y-86851275D01*
X148723715Y-86851275D02*
X148771334Y-87041751D01*
X148771334Y-87041751D02*
X148818953Y-87136989D01*
X148818953Y-87136989D02*
X148914191Y-87232228D01*
X148914191Y-87232228D02*
X149057048Y-87279847D01*
X149057048Y-87279847D02*
X149295143Y-87279847D01*
X148295143Y-87279847D02*
X148295143Y-86279847D01*
X148295143Y-86279847D02*
X147914191Y-86279847D01*
X147914191Y-86279847D02*
X147818953Y-86327466D01*
X147818953Y-86327466D02*
X147771334Y-86375085D01*
X147771334Y-86375085D02*
X147723715Y-86470323D01*
X147723715Y-86470323D02*
X147723715Y-86613180D01*
X147723715Y-86613180D02*
X147771334Y-86708418D01*
X147771334Y-86708418D02*
X147818953Y-86756037D01*
X147818953Y-86756037D02*
X147914191Y-86803656D01*
X147914191Y-86803656D02*
X148295143Y-86803656D01*
X147295143Y-86898894D02*
X146533239Y-86898894D01*
X145533239Y-87279847D02*
X146104667Y-87279847D01*
X145818953Y-87279847D02*
X145818953Y-86279847D01*
X145818953Y-86279847D02*
X145914191Y-86422704D01*
X145914191Y-86422704D02*
X146009429Y-86517942D01*
X146009429Y-86517942D02*
X146104667Y-86565561D01*
X144580858Y-87279847D02*
X145152286Y-87279847D01*
X144866572Y-87279847D02*
X144866572Y-86279847D01*
X144866572Y-86279847D02*
X144961810Y-86422704D01*
X144961810Y-86422704D02*
X145057048Y-86517942D01*
X145057048Y-86517942D02*
X145152286Y-86565561D01*
X143390381Y-87279847D02*
X143390381Y-86279847D01*
X142914191Y-86613180D02*
X142914191Y-87279847D01*
X142914191Y-86708418D02*
X142866572Y-86660799D01*
X142866572Y-86660799D02*
X142771334Y-86613180D01*
X142771334Y-86613180D02*
X142628477Y-86613180D01*
X142628477Y-86613180D02*
X142533239Y-86660799D01*
X142533239Y-86660799D02*
X142485620Y-86756037D01*
X142485620Y-86756037D02*
X142485620Y-87279847D01*
X141866572Y-87279847D02*
X141961810Y-87232228D01*
X141961810Y-87232228D02*
X142009429Y-87136989D01*
X142009429Y-87136989D02*
X142009429Y-86279847D01*
X141485619Y-87279847D02*
X141485619Y-86613180D01*
X141485619Y-86279847D02*
X141533238Y-86327466D01*
X141533238Y-86327466D02*
X141485619Y-86375085D01*
X141485619Y-86375085D02*
X141438000Y-86327466D01*
X141438000Y-86327466D02*
X141485619Y-86279847D01*
X141485619Y-86279847D02*
X141485619Y-86375085D01*
X141009429Y-86613180D02*
X141009429Y-87279847D01*
X141009429Y-86708418D02*
X140961810Y-86660799D01*
X140961810Y-86660799D02*
X140866572Y-86613180D01*
X140866572Y-86613180D02*
X140723715Y-86613180D01*
X140723715Y-86613180D02*
X140628477Y-86660799D01*
X140628477Y-86660799D02*
X140580858Y-86756037D01*
X140580858Y-86756037D02*
X140580858Y-87279847D01*
X139723715Y-87232228D02*
X139818953Y-87279847D01*
X139818953Y-87279847D02*
X140009429Y-87279847D01*
X140009429Y-87279847D02*
X140104667Y-87232228D01*
X140104667Y-87232228D02*
X140152286Y-87136989D01*
X140152286Y-87136989D02*
X140152286Y-86756037D01*
X140152286Y-86756037D02*
X140104667Y-86660799D01*
X140104667Y-86660799D02*
X140009429Y-86613180D01*
X140009429Y-86613180D02*
X139818953Y-86613180D01*
X139818953Y-86613180D02*
X139723715Y-86660799D01*
X139723715Y-86660799D02*
X139676096Y-86756037D01*
X139676096Y-86756037D02*
X139676096Y-86851275D01*
X139676096Y-86851275D02*
X140152286Y-86946513D01*
X137914191Y-87279847D02*
X138247524Y-86803656D01*
X138485619Y-87279847D02*
X138485619Y-86279847D01*
X138485619Y-86279847D02*
X138104667Y-86279847D01*
X138104667Y-86279847D02*
X138009429Y-86327466D01*
X138009429Y-86327466D02*
X137961810Y-86375085D01*
X137961810Y-86375085D02*
X137914191Y-86470323D01*
X137914191Y-86470323D02*
X137914191Y-86613180D01*
X137914191Y-86613180D02*
X137961810Y-86708418D01*
X137961810Y-86708418D02*
X138009429Y-86756037D01*
X138009429Y-86756037D02*
X138104667Y-86803656D01*
X138104667Y-86803656D02*
X138485619Y-86803656D01*
X137104667Y-87232228D02*
X137199905Y-87279847D01*
X137199905Y-87279847D02*
X137390381Y-87279847D01*
X137390381Y-87279847D02*
X137485619Y-87232228D01*
X137485619Y-87232228D02*
X137533238Y-87136989D01*
X137533238Y-87136989D02*
X137533238Y-86756037D01*
X137533238Y-86756037D02*
X137485619Y-86660799D01*
X137485619Y-86660799D02*
X137390381Y-86613180D01*
X137390381Y-86613180D02*
X137199905Y-86613180D01*
X137199905Y-86613180D02*
X137104667Y-86660799D01*
X137104667Y-86660799D02*
X137057048Y-86756037D01*
X137057048Y-86756037D02*
X137057048Y-86851275D01*
X137057048Y-86851275D02*
X137533238Y-86946513D01*
X136199905Y-86613180D02*
X136199905Y-87422704D01*
X136199905Y-87422704D02*
X136247524Y-87517942D01*
X136247524Y-87517942D02*
X136295143Y-87565561D01*
X136295143Y-87565561D02*
X136390381Y-87613180D01*
X136390381Y-87613180D02*
X136533238Y-87613180D01*
X136533238Y-87613180D02*
X136628476Y-87565561D01*
X136199905Y-87232228D02*
X136295143Y-87279847D01*
X136295143Y-87279847D02*
X136485619Y-87279847D01*
X136485619Y-87279847D02*
X136580857Y-87232228D01*
X136580857Y-87232228D02*
X136628476Y-87184608D01*
X136628476Y-87184608D02*
X136676095Y-87089370D01*
X136676095Y-87089370D02*
X136676095Y-86803656D01*
X136676095Y-86803656D02*
X136628476Y-86708418D01*
X136628476Y-86708418D02*
X136580857Y-86660799D01*
X136580857Y-86660799D02*
X136485619Y-86613180D01*
X136485619Y-86613180D02*
X136295143Y-86613180D01*
X136295143Y-86613180D02*
X136199905Y-86660799D01*
X135295143Y-86613180D02*
X135295143Y-87279847D01*
X135723714Y-86613180D02*
X135723714Y-87136989D01*
X135723714Y-87136989D02*
X135676095Y-87232228D01*
X135676095Y-87232228D02*
X135580857Y-87279847D01*
X135580857Y-87279847D02*
X135438000Y-87279847D01*
X135438000Y-87279847D02*
X135342762Y-87232228D01*
X135342762Y-87232228D02*
X135295143Y-87184608D01*
X134676095Y-87279847D02*
X134771333Y-87232228D01*
X134771333Y-87232228D02*
X134818952Y-87136989D01*
X134818952Y-87136989D02*
X134818952Y-86279847D01*
X133866571Y-87279847D02*
X133866571Y-86756037D01*
X133866571Y-86756037D02*
X133914190Y-86660799D01*
X133914190Y-86660799D02*
X134009428Y-86613180D01*
X134009428Y-86613180D02*
X134199904Y-86613180D01*
X134199904Y-86613180D02*
X134295142Y-86660799D01*
X133866571Y-87232228D02*
X133961809Y-87279847D01*
X133961809Y-87279847D02*
X134199904Y-87279847D01*
X134199904Y-87279847D02*
X134295142Y-87232228D01*
X134295142Y-87232228D02*
X134342761Y-87136989D01*
X134342761Y-87136989D02*
X134342761Y-87041751D01*
X134342761Y-87041751D02*
X134295142Y-86946513D01*
X134295142Y-86946513D02*
X134199904Y-86898894D01*
X134199904Y-86898894D02*
X133961809Y-86898894D01*
X133961809Y-86898894D02*
X133866571Y-86851275D01*
X133533237Y-86613180D02*
X133152285Y-86613180D01*
X133390380Y-86279847D02*
X133390380Y-87136989D01*
X133390380Y-87136989D02*
X133342761Y-87232228D01*
X133342761Y-87232228D02*
X133247523Y-87279847D01*
X133247523Y-87279847D02*
X133152285Y-87279847D01*
X132676094Y-87279847D02*
X132771332Y-87232228D01*
X132771332Y-87232228D02*
X132818951Y-87184608D01*
X132818951Y-87184608D02*
X132866570Y-87089370D01*
X132866570Y-87089370D02*
X132866570Y-86803656D01*
X132866570Y-86803656D02*
X132818951Y-86708418D01*
X132818951Y-86708418D02*
X132771332Y-86660799D01*
X132771332Y-86660799D02*
X132676094Y-86613180D01*
X132676094Y-86613180D02*
X132533237Y-86613180D01*
X132533237Y-86613180D02*
X132437999Y-86660799D01*
X132437999Y-86660799D02*
X132390380Y-86708418D01*
X132390380Y-86708418D02*
X132342761Y-86803656D01*
X132342761Y-86803656D02*
X132342761Y-87089370D01*
X132342761Y-87089370D02*
X132390380Y-87184608D01*
X132390380Y-87184608D02*
X132437999Y-87232228D01*
X132437999Y-87232228D02*
X132533237Y-87279847D01*
X132533237Y-87279847D02*
X132676094Y-87279847D01*
X131914189Y-87279847D02*
X131914189Y-86613180D01*
X131914189Y-86803656D02*
X131866570Y-86708418D01*
X131866570Y-86708418D02*
X131818951Y-86660799D01*
X131818951Y-86660799D02*
X131723713Y-86613180D01*
X131723713Y-86613180D02*
X131628475Y-86613180D01*
X130199903Y-86756037D02*
X130533236Y-86756037D01*
X130533236Y-87279847D02*
X130533236Y-86279847D01*
X130533236Y-86279847D02*
X130057046Y-86279847D01*
X129247522Y-86613180D02*
X129247522Y-87279847D01*
X129676093Y-86613180D02*
X129676093Y-87136989D01*
X129676093Y-87136989D02*
X129628474Y-87232228D01*
X129628474Y-87232228D02*
X129533236Y-87279847D01*
X129533236Y-87279847D02*
X129390379Y-87279847D01*
X129390379Y-87279847D02*
X129295141Y-87232228D01*
X129295141Y-87232228D02*
X129247522Y-87184608D01*
X128818950Y-87232228D02*
X128723712Y-87279847D01*
X128723712Y-87279847D02*
X128533236Y-87279847D01*
X128533236Y-87279847D02*
X128437998Y-87232228D01*
X128437998Y-87232228D02*
X128390379Y-87136989D01*
X128390379Y-87136989D02*
X128390379Y-87089370D01*
X128390379Y-87089370D02*
X128437998Y-86994132D01*
X128437998Y-86994132D02*
X128533236Y-86946513D01*
X128533236Y-86946513D02*
X128676093Y-86946513D01*
X128676093Y-86946513D02*
X128771331Y-86898894D01*
X128771331Y-86898894D02*
X128818950Y-86803656D01*
X128818950Y-86803656D02*
X128818950Y-86756037D01*
X128818950Y-86756037D02*
X128771331Y-86660799D01*
X128771331Y-86660799D02*
X128676093Y-86613180D01*
X128676093Y-86613180D02*
X128533236Y-86613180D01*
X128533236Y-86613180D02*
X128437998Y-86660799D01*
X127580855Y-87232228D02*
X127676093Y-87279847D01*
X127676093Y-87279847D02*
X127866569Y-87279847D01*
X127866569Y-87279847D02*
X127961807Y-87232228D01*
X127961807Y-87232228D02*
X128009426Y-87136989D01*
X128009426Y-87136989D02*
X128009426Y-86756037D01*
X128009426Y-86756037D02*
X127961807Y-86660799D01*
X127961807Y-86660799D02*
X127866569Y-86613180D01*
X127866569Y-86613180D02*
X127676093Y-86613180D01*
X127676093Y-86613180D02*
X127580855Y-86660799D01*
X127580855Y-86660799D02*
X127533236Y-86756037D01*
X127533236Y-86756037D02*
X127533236Y-86851275D01*
X127533236Y-86851275D02*
X128009426Y-86946513D01*
X140652285Y-87985029D02*
X140604666Y-87937410D01*
X140604666Y-87937410D02*
X140509428Y-87889791D01*
X140509428Y-87889791D02*
X140271333Y-87889791D01*
X140271333Y-87889791D02*
X140176095Y-87937410D01*
X140176095Y-87937410D02*
X140128476Y-87985029D01*
X140128476Y-87985029D02*
X140080857Y-88080267D01*
X140080857Y-88080267D02*
X140080857Y-88175505D01*
X140080857Y-88175505D02*
X140128476Y-88318362D01*
X140128476Y-88318362D02*
X140699904Y-88889791D01*
X140699904Y-88889791D02*
X140080857Y-88889791D01*
X139461809Y-87889791D02*
X139366571Y-87889791D01*
X139366571Y-87889791D02*
X139271333Y-87937410D01*
X139271333Y-87937410D02*
X139223714Y-87985029D01*
X139223714Y-87985029D02*
X139176095Y-88080267D01*
X139176095Y-88080267D02*
X139128476Y-88270743D01*
X139128476Y-88270743D02*
X139128476Y-88508838D01*
X139128476Y-88508838D02*
X139176095Y-88699314D01*
X139176095Y-88699314D02*
X139223714Y-88794552D01*
X139223714Y-88794552D02*
X139271333Y-88842172D01*
X139271333Y-88842172D02*
X139366571Y-88889791D01*
X139366571Y-88889791D02*
X139461809Y-88889791D01*
X139461809Y-88889791D02*
X139557047Y-88842172D01*
X139557047Y-88842172D02*
X139604666Y-88794552D01*
X139604666Y-88794552D02*
X139652285Y-88699314D01*
X139652285Y-88699314D02*
X139699904Y-88508838D01*
X139699904Y-88508838D02*
X139699904Y-88270743D01*
X139699904Y-88270743D02*
X139652285Y-88080267D01*
X139652285Y-88080267D02*
X139604666Y-87985029D01*
X139604666Y-87985029D02*
X139557047Y-87937410D01*
X139557047Y-87937410D02*
X139461809Y-87889791D01*
X138747523Y-87985029D02*
X138699904Y-87937410D01*
X138699904Y-87937410D02*
X138604666Y-87889791D01*
X138604666Y-87889791D02*
X138366571Y-87889791D01*
X138366571Y-87889791D02*
X138271333Y-87937410D01*
X138271333Y-87937410D02*
X138223714Y-87985029D01*
X138223714Y-87985029D02*
X138176095Y-88080267D01*
X138176095Y-88080267D02*
X138176095Y-88175505D01*
X138176095Y-88175505D02*
X138223714Y-88318362D01*
X138223714Y-88318362D02*
X138795142Y-88889791D01*
X138795142Y-88889791D02*
X138176095Y-88889791D01*
X137842761Y-87889791D02*
X137223714Y-87889791D01*
X137223714Y-87889791D02*
X137557047Y-88270743D01*
X137557047Y-88270743D02*
X137414190Y-88270743D01*
X137414190Y-88270743D02*
X137318952Y-88318362D01*
X137318952Y-88318362D02*
X137271333Y-88365981D01*
X137271333Y-88365981D02*
X137223714Y-88461219D01*
X137223714Y-88461219D02*
X137223714Y-88699314D01*
X137223714Y-88699314D02*
X137271333Y-88794552D01*
X137271333Y-88794552D02*
X137318952Y-88842172D01*
X137318952Y-88842172D02*
X137414190Y-88889791D01*
X137414190Y-88889791D02*
X137699904Y-88889791D01*
X137699904Y-88889791D02*
X137795142Y-88842172D01*
X137795142Y-88842172D02*
X137842761Y-88794552D01*
X134191332Y-130137819D02*
X133572285Y-130137819D01*
X133572285Y-130137819D02*
X133905618Y-130518771D01*
X133905618Y-130518771D02*
X133762761Y-130518771D01*
X133762761Y-130518771D02*
X133667523Y-130566390D01*
X133667523Y-130566390D02*
X133619904Y-130614009D01*
X133619904Y-130614009D02*
X133572285Y-130709247D01*
X133572285Y-130709247D02*
X133572285Y-130947342D01*
X133572285Y-130947342D02*
X133619904Y-131042580D01*
X133619904Y-131042580D02*
X133667523Y-131090200D01*
X133667523Y-131090200D02*
X133762761Y-131137819D01*
X133762761Y-131137819D02*
X134048475Y-131137819D01*
X134048475Y-131137819D02*
X134143713Y-131090200D01*
X134143713Y-131090200D02*
X134191332Y-131042580D01*
D11*
X161100000Y-89000000D02*
X161100000Y-131000000D01*
X166900000Y-89000000D02*
X161100000Y-89000000D01*
X166900000Y-89000000D02*
X166900000Y-131000000D01*
X166900000Y-131000000D02*
X161100000Y-131000000D01*
%LPC*%
D12*
X109855000Y-87910000D03*
X168275000Y-132080000D03*
X158275000Y-87910000D03*
X158275000Y-132080000D03*
X119855000Y-132080000D03*
X119855000Y-87910000D03*
X109855000Y-132080000D03*
D13*
X114000000Y-127955000D03*
D12*
X114000000Y-122825000D03*
X114000000Y-117695000D03*
X114000000Y-112565000D03*
X114000000Y-107435000D03*
X114000000Y-102305000D03*
X114000000Y-97175000D03*
X114000000Y-92045000D03*
D14*
X121895000Y-102362000D03*
X129515000Y-102362000D03*
D15*
X148485000Y-102362000D03*
X156105000Y-102362000D03*
D12*
X168275000Y-87910000D03*
D16*
X128840000Y-132690000D03*
D17*
X131380000Y-132690000D03*
X133920000Y-132690000D03*
X136460000Y-132690000D03*
X139000000Y-132690000D03*
X141540000Y-132690000D03*
X144080000Y-132690000D03*
X146620000Y-132690000D03*
D13*
X164000000Y-127955000D03*
D12*
X164000000Y-122825000D03*
X164000000Y-117695000D03*
X164000000Y-112565000D03*
X164000000Y-107435000D03*
X164000000Y-102305000D03*
X164000000Y-97175000D03*
X164000000Y-92045000D03*
%LPD*%
M02*
