M48
; DRILL file {KiCad 8.0.2} date 2024-05-30T20:37:46+1200
; FORMAT={-:-/ absolute / metric / decimal}
; #@! TF.CreationDate,2024-05-30T20:37:46+12:00
; #@! TF.GenerationSoftware,Kicad,Pcbnew,8.0.2
; #@! TF.FileFunction,Plated,1,2,PTH
FMAT,2
METRIC
; #@! TA.AperFunction,Plated,PTH,ComponentDrill
T1C1.000
; #@! TA.AperFunction,Plated,PTH,ComponentDrill
T2C1.500
; #@! TA.AperFunction,Plated,PTH,ComponentDrill
T3C1.980
%
G90
G05
T1
X128.84Y-132.69
X131.38Y-132.69
X133.92Y-132.69
X136.46Y-132.69
X139.0Y-132.69
X141.54Y-132.69
X144.08Y-132.69
X146.62Y-132.69
T2
X114.0Y-92.045
X114.0Y-97.175
X114.0Y-102.305
X114.0Y-107.435
X114.0Y-112.565
X114.0Y-117.695
X114.0Y-122.825
X114.0Y-127.955
X164.0Y-92.045
X164.0Y-97.175
X164.0Y-102.305
X164.0Y-107.435
X164.0Y-112.565
X164.0Y-117.695
X164.0Y-122.825
X164.0Y-127.955
T3
X121.895Y-102.362
X129.515Y-102.362
X148.485Y-102.362
X156.105Y-102.362
M30
