G04 #@! TF.GenerationSoftware,KiCad,Pcbnew,8.0.2*
G04 #@! TF.CreationDate,2024-05-30T20:37:43+12:00*
G04 #@! TF.ProjectId,PDP-FUSE,5044502d-4655-4534-952e-6b696361645f,rev?*
G04 #@! TF.SameCoordinates,Original*
G04 #@! TF.FileFunction,Copper,L1,Top*
G04 #@! TF.FilePolarity,Positive*
%FSLAX46Y46*%
G04 Gerber Fmt 4.6, Leading zero omitted, Abs format (unit mm)*
G04 Created by KiCad (PCBNEW 8.0.2) date 2024-05-30 20:37:43*
%MOMM*%
%LPD*%
G01*
G04 APERTURE LIST*
G04 Aperture macros list*
%AMRoundRect*
0 Rectangle with rounded corners*
0 $1 Rounding radius*
0 $2 $3 $4 $5 $6 $7 $8 $9 X,Y pos of 4 corners*
0 Add a 4 corners polygon primitive as box body*
4,1,4,$2,$3,$4,$5,$6,$7,$8,$9,$2,$3,0*
0 Add four circle primitives for the rounded corners*
1,1,$1+$1,$2,$3*
1,1,$1+$1,$4,$5*
1,1,$1+$1,$6,$7*
1,1,$1+$1,$8,$9*
0 Add four rect primitives between the rounded corners*
20,1,$1+$1,$2,$3,$4,$5,0*
20,1,$1+$1,$4,$5,$6,$7,0*
20,1,$1+$1,$6,$7,$8,$9,0*
20,1,$1+$1,$8,$9,$2,$3,0*%
G04 Aperture macros list end*
G04 #@! TA.AperFunction,ComponentPad*
%ADD10RoundRect,0.800000X0.800000X-0.800000X0.800000X0.800000X-0.800000X0.800000X-0.800000X-0.800000X0*%
G04 #@! TD*
G04 #@! TA.AperFunction,ComponentPad*
%ADD11C,3.200000*%
G04 #@! TD*
G04 #@! TA.AperFunction,ComponentPad*
%ADD12RoundRect,0.750000X-0.750000X-0.750000X0.750000X-0.750000X0.750000X0.750000X-0.750000X0.750000X0*%
G04 #@! TD*
G04 #@! TA.AperFunction,ComponentPad*
%ADD13C,3.000000*%
G04 #@! TD*
G04 #@! TA.AperFunction,ComponentPad*
%ADD14R,1.700000X1.700000*%
G04 #@! TD*
G04 #@! TA.AperFunction,ComponentPad*
%ADD15O,1.700000X1.700000*%
G04 #@! TD*
G04 #@! TA.AperFunction,Conductor*
%ADD16C,0.250000*%
G04 #@! TD*
G04 #@! TA.AperFunction,Conductor*
%ADD17C,1.700000*%
G04 #@! TD*
G04 APERTURE END LIST*
D10*
X114000000Y-127955000D03*
D11*
X114000000Y-122825000D03*
X114000000Y-117695000D03*
X114000000Y-112565000D03*
X114000000Y-107435000D03*
X114000000Y-102305000D03*
X114000000Y-97175000D03*
X114000000Y-92045000D03*
D12*
X121895000Y-102362000D03*
X129515000Y-102362000D03*
D13*
X148485000Y-102362000D03*
X156105000Y-102362000D03*
D14*
X128840000Y-132690000D03*
D15*
X131380000Y-132690000D03*
X133920000Y-132690000D03*
X136460000Y-132690000D03*
X139000000Y-132690000D03*
X141540000Y-132690000D03*
X144080000Y-132690000D03*
X146620000Y-132690000D03*
D10*
X164000000Y-127955000D03*
D11*
X164000000Y-122825000D03*
X164000000Y-117695000D03*
X164000000Y-112565000D03*
X164000000Y-107435000D03*
X164000000Y-102305000D03*
X164000000Y-97175000D03*
X164000000Y-92045000D03*
D16*
X141540000Y-110428000D02*
X142113000Y-109855000D01*
X142113000Y-109855000D02*
X165735000Y-109855000D01*
X166370000Y-104675000D02*
X164000000Y-102305000D01*
X166370000Y-109220000D02*
X166370000Y-104675000D01*
D17*
X141540000Y-132690000D02*
X141540000Y-134301000D01*
D16*
X165735000Y-109855000D02*
X166370000Y-109220000D01*
X141540000Y-132690000D02*
X141540000Y-110428000D01*
X128840000Y-132690000D02*
X128840000Y-128840000D01*
D17*
X128840000Y-132690000D02*
X128840000Y-134301000D01*
D16*
X127955000Y-127955000D02*
X114000000Y-127955000D01*
X128840000Y-128840000D02*
X127955000Y-127955000D01*
X131380000Y-132690000D02*
X131380000Y-123252000D01*
D17*
X131380000Y-132690000D02*
X131380000Y-134301000D01*
D16*
X114111000Y-122936000D02*
X114000000Y-122825000D01*
X131380000Y-123252000D02*
X131064000Y-122936000D01*
X131064000Y-122936000D02*
X114111000Y-122936000D01*
X133858000Y-118364000D02*
X133189000Y-117695000D01*
D17*
X133920000Y-132690000D02*
X133920000Y-134301000D01*
D16*
X133189000Y-117695000D02*
X114000000Y-117695000D01*
X133858000Y-132628000D02*
X133858000Y-118364000D01*
X133920000Y-132690000D02*
X133858000Y-132628000D01*
X136460000Y-112584000D02*
X136441000Y-112565000D01*
X136460000Y-132690000D02*
X136460000Y-112584000D01*
D17*
X136460000Y-132690000D02*
X136460000Y-134301000D01*
D16*
X136441000Y-112565000D02*
X114000000Y-112565000D01*
X139000000Y-132690000D02*
X139000000Y-107888000D01*
D17*
X139000000Y-132690000D02*
X139000000Y-134301000D01*
D16*
X139453000Y-107435000D02*
X164000000Y-107435000D01*
X139000000Y-107888000D02*
X139453000Y-107435000D01*
D17*
X144080000Y-132690000D02*
X144080000Y-134301000D01*
D16*
X167640000Y-112395000D02*
X167640000Y-100815000D01*
X165100000Y-114935000D02*
X167640000Y-112395000D01*
X144080000Y-115254000D02*
X144399000Y-114935000D01*
X144080000Y-132690000D02*
X144080000Y-115254000D01*
X167640000Y-100815000D02*
X164000000Y-97175000D01*
X144399000Y-114935000D02*
X165100000Y-114935000D01*
X168910000Y-96774000D02*
X164181000Y-92045000D01*
X165735000Y-120015000D02*
X168910000Y-116840000D01*
X168910000Y-116840000D02*
X168910000Y-96774000D01*
X146620000Y-120334000D02*
X146939000Y-120015000D01*
D17*
X146620000Y-132690000D02*
X146620000Y-134301000D01*
D16*
X164181000Y-92045000D02*
X164000000Y-92045000D01*
X146620000Y-132690000D02*
X146620000Y-120334000D01*
X146939000Y-120015000D02*
X165735000Y-120015000D01*
M02*
